<svg width="1420" height="33" viewBox="0 0 1420 33" fill="none" xmlns="http://www.w3.org/2000/svg">
<g clip-path="url(#clip0_1_1466)">
<path d="M643.85 27.7898C650.87 27.7898 654.71 21.9998 654.71 16.9898L654.7 16.4898C655.446 15.9526 656.092 15.2893 656.61 14.5298C655.91 14.8298 655.17 15.0398 654.41 15.1198C655.21 14.6498 655.81 13.8998 656.09 13.0198C655.35 13.4598 654.52 13.7798 653.67 13.9498C652.975 13.2135 652.017 12.7823 651.005 12.7504C649.993 12.7186 649.01 13.0887 648.27 13.7798C647.784 14.2349 647.426 14.81 647.233 15.4473C647.04 16.0846 647.018 16.7614 647.17 17.4098C645.654 17.3356 644.171 16.9449 642.816 16.2629C641.46 15.5808 640.263 14.6226 639.3 13.4498C638.81 14.2836 638.66 15.2738 638.879 16.2155C639.099 17.1573 639.672 17.9787 640.48 18.5098C639.871 18.4961 639.273 18.3348 638.74 18.0398V18.0798C638.744 18.9601 639.051 19.8121 639.611 20.4917C640.17 21.1714 640.947 21.637 641.81 21.8098C641.25 21.9598 640.66 21.9798 640.08 21.8698C640.33 22.6246 640.807 23.2836 641.446 23.7563C642.085 24.229 642.855 24.4922 643.65 24.5098C642.046 25.7549 640.016 26.3189 638 26.0798C639.745 27.1996 641.776 27.7933 643.85 27.7898Z" fill="#1C1C1C"/>
</g>
<g clip-path="url(#clip1_1_1466)">
<path d="M746.74 11.8C747.62 11.84 748.22 11.98 748.75 12.19C749.307 12.3941 749.809 12.7224 750.22 13.15C750.69 13.61 750.97 14.07 751.18 14.62C751.39 15.15 751.53 15.75 751.57 16.64C751.61 17.52 751.62 17.8 751.62 20.06C751.62 22.32 751.61 22.6 751.57 23.49C751.557 24.1807 751.425 24.864 751.18 25.51C750.973 26.0654 750.645 26.5676 750.22 26.98C749.76 27.44 749.3 27.73 748.75 27.94C748.22 28.14 747.62 28.28 746.74 28.32C745.85 28.37 745.57 28.37 743.31 28.37C741.05 28.37 740.77 28.37 739.88 28.32C739.194 28.3048 738.515 28.1764 737.87 27.94C737.315 27.7326 736.81 27.4083 736.391 26.989C735.972 26.5698 735.647 26.0654 735.44 25.51C735.195 24.864 735.063 24.1807 735.05 23.49C735.01 22.6 735 22.32 735 20.06C735 17.8 735.01 17.52 735.05 16.64C735.09 15.75 735.23 15.15 735.44 14.62C735.644 14.0659 735.969 13.5639 736.39 13.15C736.86 12.68 737.32 12.4 737.87 12.19C738.512 11.9448 739.193 11.8129 739.88 11.8C740.77 11.76 741.05 11.75 743.31 11.75C745.57 11.75 745.85 11.76 746.74 11.8ZM743.31 13.25C741.09 13.25 740.83 13.26 739.95 13.3C739.14 13.33 738.7 13.47 738.41 13.58C738.047 13.7124 737.718 13.9224 737.445 14.1953C737.172 14.4682 736.962 14.7975 736.83 15.16C736.72 15.45 736.58 15.89 736.55 16.7C736.5 17.8193 736.484 18.9398 736.5 20.06C736.5 22.28 736.51 22.54 736.55 23.42C736.58 24.23 736.72 24.67 736.83 24.96C736.98 25.35 737.16 25.63 737.45 25.92C737.74 26.21 738.02 26.39 738.41 26.54C738.7 26.66 739.14 26.79 739.95 26.83C740.83 26.87 741.09 26.88 743.31 26.88C745.53 26.88 745.79 26.87 746.67 26.83C747.196 26.8252 747.718 26.727 748.21 26.54C748.6 26.39 748.88 26.21 749.17 25.92C749.46 25.63 749.64 25.35 749.79 24.96C749.9 24.67 750.04 24.23 750.07 23.42C750.11 22.54 750.12 22.28 750.12 20.06C750.12 17.84 750.11 17.58 750.07 16.7C750.067 16.1743 749.972 15.6531 749.79 15.16C749.658 14.7975 749.448 14.4682 749.175 14.1953C748.902 13.9224 748.573 13.7124 748.21 13.58C747.717 13.3978 747.196 13.3031 746.67 13.3C745.551 13.2504 744.43 13.2338 743.31 13.25Z" fill="#1C1C1C"/>
<path d="M743.35 22.93C742.601 22.93 741.882 22.6324 741.352 22.1026C740.823 21.5728 740.525 20.8542 740.525 20.105C740.525 19.3557 740.823 18.6372 741.352 18.1074C741.882 17.5776 742.601 17.28 743.35 17.28C743.735 17.2571 744.121 17.3131 744.484 17.4447C744.846 17.5763 745.178 17.7807 745.459 18.0453C745.74 18.3099 745.963 18.629 746.116 18.9832C746.269 19.3375 746.348 19.7192 746.348 20.105C746.348 20.4908 746.269 20.8725 746.116 21.2267C745.963 21.5809 745.74 21.9001 745.459 22.1647C745.178 22.4293 744.846 22.6336 744.484 22.7652C744.121 22.8968 743.735 22.9529 743.35 22.93ZM739 20.1C738.972 20.6894 739.063 21.2785 739.27 21.8315C739.476 22.3845 739.792 22.8898 740.199 23.317C740.606 23.7442 741.096 24.0842 741.638 24.3166C742.181 24.5489 742.765 24.6687 743.355 24.6687C743.945 24.6687 744.529 24.5489 745.072 24.3166C745.614 24.0842 746.104 23.7442 746.511 23.317C746.918 22.8898 747.234 22.3845 747.44 21.8315C747.647 21.2785 747.738 20.6894 747.71 20.1C747.656 18.9811 747.174 17.9257 746.363 17.1528C745.552 16.3799 744.475 15.9487 743.355 15.9487C742.235 15.9487 741.158 16.3799 740.347 17.1528C739.536 17.9257 739.054 18.9811 739 20.1Z" fill="#1C1C1C"/>
<path d="M749.37 16.94C749.367 17.2531 749.243 17.5528 749.022 17.7751C748.802 17.9974 748.503 18.1248 748.19 18.13C747.901 18.0924 747.635 17.951 747.443 17.732C747.251 17.513 747.145 17.2315 747.145 16.94C747.145 16.6485 747.251 16.367 747.443 16.148C747.635 15.929 747.901 15.7876 748.19 15.75C748.84 15.75 749.37 16.28 749.37 16.94Z" fill="#1C1C1C"/>
</g>
<g clip-path="url(#clip2_1_1466)">
<path d="M603.86 16.5802H607.29V19.9902H603.86V27.9602H600.43V19.9902H597V16.5802H600.43V15.1502C600.43 13.8002 600.86 12.0902 601.71 11.1502C602.107 10.7004 602.597 10.3422 603.146 10.1005C603.695 9.85873 604.29 9.73922 604.89 9.75021H607.29V13.1602H604.89C604.32 13.1602 603.86 13.6202 603.86 14.1902V16.5802Z" fill="#1C1C1C"/>
</g>
<g clip-path="url(#clip3_1_1466)">
<path d="M804.37 20.46V22.08C804.37 23.81 804.15 25.54 804.15 25.54C804.15 25.54 803.95 27.01 803.31 27.66C802.49 28.51 801.58 28.52 801.16 28.57C798.17 28.79 793.68 28.79 793.68 28.79C793.68 28.79 788.13 28.74 786.42 28.58C785.94 28.49 784.88 28.51 784.06 27.66C783.42 27.01 783.21 25.54 783.21 25.54C783.21 25.54 783 23.81 783 22.08V20.46C783 18.73 783.21 16.99 783.21 16.99C783.21 16.99 783.42 15.52 784.06 14.87C784.88 14.02 785.79 14.02 786.2 13.97C789.19 13.75 793.68 13.75 793.68 13.75H793.69C793.69 13.75 798.17 13.75 801.16 13.97C801.58 14.02 802.49 14.02 803.31 14.87C803.95 15.52 804.15 16.99 804.15 16.99C804.15 16.99 804.37 18.73 804.37 20.46ZM798.04 21.28L791.71 18.5V24.04L798.04 21.28Z" fill="#1C1C1C"/>
</g>
<g clip-path="url(#clip4_1_1466)">
<path d="M687.27 16.53H690.68V28.17H687.27V16.53ZM690.96 12.85C690.96 14 690.07 14.95 688.98 14.95C687.88 14.95 687 14 687 12.85C687 11.69 687.88 10.75 688.98 10.75C690.07 10.75 690.96 11.69 690.96 12.85Z" fill="#1C1C1C"/>
<path d="M693 16.03H696.4V17.62H696.45C696.788 17.031 697.281 16.5456 697.875 16.216C698.469 15.8865 699.141 15.7254 699.82 15.75C703.41 15.75 704.08 18.15 704.08 21.27V27.63H700.53V21.99C700.53 20.64 700.51 18.91 698.69 18.91C696.83 18.91 696.56 20.38 696.56 21.89V27.63H693.01L693 16.03Z" fill="#1C1C1C"/>
</g>
<defs>
<clipPath id="clip0_1_1466">
<rect width="19" height="16" fill="white" transform="translate(638 12.75)"/>
</clipPath>
<clipPath id="clip1_1_1466">
<rect width="17" height="17" fill="white" transform="translate(735 11.75)"/>
</clipPath>
<clipPath id="clip2_1_1466">
<rect width="11" height="19" fill="white" transform="translate(597 9.75)"/>
</clipPath>
<clipPath id="clip3_1_1466">
<rect width="22" height="16" fill="white" transform="translate(782 12.75)"/>
</clipPath>
<clipPath id="clip4_1_1466">
<rect width="18" height="19" fill="white" transform="translate(687 9.75)"/>
</clipPath>
</defs>
</svg>
