<svg width="460" height="200" viewBox="0 0 460 200" fill="none" xmlns="http://www.w3.org/2000/svg">
<path d="M0 8.75C0 4.33172 3.58172 0.75 8 0.75H450C455.523 0.75 460 5.22715 460 10.75V189.75C460 195.273 455.523 199.75 450 199.75H8.00001C3.58173 199.75 0 196.168 0 191.75V8.75Z" fill="#17002E"/>
<path d="M101.143 61.75V48.9531H105.625C107.178 48.9531 108.355 49.252 109.158 49.8496C109.961 50.4414 110.362 51.3115 110.362 52.46C110.362 53.0869 110.201 53.6406 109.879 54.1211C109.557 54.5957 109.108 54.9443 108.534 55.167C109.19 55.3311 109.706 55.6621 110.081 56.1602C110.462 56.6582 110.652 57.2676 110.652 57.9883C110.652 59.2188 110.26 60.1504 109.475 60.7832C108.689 61.416 107.57 61.7383 106.117 61.75H101.143ZM103.779 56.1777V59.6318H106.038C106.659 59.6318 107.143 59.4854 107.488 59.1924C107.84 58.8936 108.016 58.4834 108.016 57.9619C108.016 56.79 107.409 56.1953 106.196 56.1777H103.779ZM103.779 54.3145H105.73C107.061 54.291 107.726 53.7607 107.726 52.7236C107.726 52.1436 107.556 51.7275 107.216 51.4756C106.882 51.2178 106.352 51.0889 105.625 51.0889H103.779V54.3145ZM116.849 61.9258C115.454 61.9258 114.317 61.498 113.438 60.6426C112.565 59.7871 112.129 58.6475 112.129 57.2236V56.9775C112.129 56.0225 112.313 55.1699 112.683 54.4199C113.052 53.6641 113.573 53.084 114.247 52.6797C114.927 52.2695 115.7 52.0645 116.567 52.0645C117.868 52.0645 118.891 52.4746 119.635 53.2949C120.385 54.1152 120.76 55.2783 120.76 56.7842V57.8213H114.704C114.786 58.4424 115.032 58.9404 115.442 59.3154C115.858 59.6904 116.383 59.8779 117.016 59.8779C117.994 59.8779 118.759 59.5234 119.31 58.8145L120.558 60.2119C120.177 60.751 119.661 61.1729 119.011 61.4775C118.36 61.7764 117.64 61.9258 116.849 61.9258ZM116.559 54.1211C116.055 54.1211 115.645 54.291 115.328 54.6309C115.018 54.9707 114.818 55.457 114.73 56.0898H118.264V55.8877C118.252 55.3252 118.1 54.8916 117.807 54.5869C117.514 54.2764 117.098 54.1211 116.559 54.1211ZM127.721 61.75C127.604 61.5215 127.519 61.2373 127.466 60.8975C126.851 61.583 126.051 61.9258 125.066 61.9258C124.135 61.9258 123.361 61.6562 122.746 61.1172C122.137 60.5781 121.832 59.8984 121.832 59.0781C121.832 58.0703 122.204 57.2969 122.948 56.7578C123.698 56.2188 124.779 55.9463 126.191 55.9404H127.36V55.3955C127.36 54.9561 127.246 54.6045 127.018 54.3408C126.795 54.0771 126.44 53.9453 125.954 53.9453C125.526 53.9453 125.189 54.0479 124.943 54.2529C124.703 54.458 124.583 54.7393 124.583 55.0967H122.043C122.043 54.5459 122.213 54.0361 122.553 53.5674C122.893 53.0986 123.373 52.7324 123.994 52.4688C124.615 52.1992 125.312 52.0645 126.086 52.0645C127.258 52.0645 128.187 52.3604 128.872 52.9521C129.563 53.5381 129.909 54.3643 129.909 55.4307V59.5527C129.915 60.4551 130.041 61.1377 130.287 61.6006V61.75H127.721ZM125.62 59.9834C125.995 59.9834 126.341 59.9014 126.657 59.7373C126.974 59.5674 127.208 59.3418 127.36 59.0605V57.4258H126.411C125.14 57.4258 124.463 57.8652 124.381 58.7441L124.372 58.8936C124.372 59.21 124.483 59.4707 124.706 59.6758C124.929 59.8809 125.233 59.9834 125.62 59.9834ZM137.556 60.7832C136.929 61.5449 136.062 61.9258 134.954 61.9258C133.935 61.9258 133.155 61.6328 132.616 61.0469C132.083 60.4609 131.811 59.6025 131.799 58.4717V52.2402H134.339V58.3838C134.339 59.374 134.79 59.8691 135.692 59.8691C136.554 59.8691 137.146 59.5703 137.468 58.9727V52.2402H140.017V61.75H137.626L137.556 60.7832ZM144.974 49.9023V52.2402H146.6V54.1035H144.974V58.8496C144.974 59.2012 145.041 59.4531 145.176 59.6055C145.311 59.7578 145.568 59.834 145.949 59.834C146.23 59.834 146.479 59.8135 146.696 59.7725V61.6973C146.198 61.8496 145.686 61.9258 145.158 61.9258C143.377 61.9258 142.469 61.0264 142.434 59.2275V54.1035H141.045V52.2402H142.434V49.9023H144.974ZM151.565 58.1553L153.323 52.2402H156.048L152.225 63.2266L152.014 63.7275C151.445 64.9697 150.508 65.5908 149.201 65.5908C148.832 65.5908 148.457 65.5352 148.076 65.4238V63.499L148.463 63.5078C148.943 63.5078 149.301 63.4346 149.535 63.2881C149.775 63.1416 149.963 62.8984 150.098 62.5586L150.396 61.7764L147.065 52.2402H149.799L151.565 58.1553ZM167.043 61.75C166.926 61.5215 166.841 61.2373 166.788 60.8975C166.173 61.583 165.373 61.9258 164.389 61.9258C163.457 61.9258 162.684 61.6562 162.068 61.1172C161.459 60.5781 161.154 59.8984 161.154 59.0781C161.154 58.0703 161.526 57.2969 162.271 56.7578C163.021 56.2188 164.102 55.9463 165.514 55.9404H166.683V55.3955C166.683 54.9561 166.568 54.6045 166.34 54.3408C166.117 54.0771 165.763 53.9453 165.276 53.9453C164.849 53.9453 164.512 54.0479 164.266 54.2529C164.025 54.458 163.905 54.7393 163.905 55.0967H161.365C161.365 54.5459 161.535 54.0361 161.875 53.5674C162.215 53.0986 162.695 52.7324 163.316 52.4688C163.938 52.1992 164.635 52.0645 165.408 52.0645C166.58 52.0645 167.509 52.3604 168.194 52.9521C168.886 53.5381 169.231 54.3643 169.231 55.4307V59.5527C169.237 60.4551 169.363 61.1377 169.609 61.6006V61.75H167.043ZM164.942 59.9834C165.317 59.9834 165.663 59.9014 165.979 59.7373C166.296 59.5674 166.53 59.3418 166.683 59.0605V57.4258H165.733C164.462 57.4258 163.785 57.8652 163.703 58.7441L163.694 58.8936C163.694 59.21 163.806 59.4707 164.028 59.6758C164.251 59.8809 164.556 59.9834 164.942 59.9834ZM173.521 52.2402L173.6 53.3389C174.279 52.4893 175.19 52.0645 176.333 52.0645C177.341 52.0645 178.091 52.3604 178.583 52.9521C179.075 53.5439 179.327 54.4287 179.339 55.6064V61.75H176.799V55.668C176.799 55.1289 176.682 54.7393 176.447 54.499C176.213 54.2529 175.823 54.1299 175.278 54.1299C174.563 54.1299 174.027 54.4346 173.67 55.0439V61.75H171.13V52.2402H173.521ZM180.877 56.9248C180.877 55.4424 181.208 54.2617 181.87 53.3828C182.538 52.5039 183.449 52.0645 184.604 52.0645C185.529 52.0645 186.294 52.4102 186.897 53.1016V48.25H189.446V61.75H187.152L187.029 60.7393C186.396 61.5303 185.582 61.9258 184.586 61.9258C183.467 61.9258 182.567 61.4863 181.888 60.6074C181.214 59.7227 180.877 58.4951 180.877 56.9248ZM183.417 57.1094C183.417 58 183.572 58.6826 183.883 59.1572C184.193 59.6318 184.645 59.8691 185.236 59.8691C186.021 59.8691 186.575 59.5381 186.897 58.876V55.123C186.581 54.4609 186.033 54.1299 185.254 54.1299C184.029 54.1299 183.417 55.123 183.417 57.1094ZM199.853 59.8779C200.321 59.8779 200.702 59.749 200.995 59.4912C201.288 59.2334 201.44 58.8906 201.452 58.4629H203.834C203.828 59.1074 203.652 59.6992 203.307 60.2383C202.961 60.7715 202.486 61.1875 201.883 61.4863C201.285 61.7793 200.623 61.9258 199.896 61.9258C198.537 61.9258 197.465 61.4951 196.68 60.6338C195.895 59.7666 195.502 58.5713 195.502 57.0479V56.8809C195.502 55.416 195.892 54.2471 196.671 53.374C197.45 52.501 198.52 52.0645 199.879 52.0645C201.068 52.0645 202.021 52.4043 202.735 53.084C203.456 53.7578 203.822 54.6572 203.834 55.7822H201.452C201.44 55.29 201.288 54.8916 200.995 54.5869C200.702 54.2764 200.315 54.1211 199.835 54.1211C199.243 54.1211 198.795 54.3379 198.49 54.7715C198.191 55.1992 198.042 55.8965 198.042 56.8633V57.127C198.042 58.1055 198.191 58.8086 198.49 59.2363C198.789 59.6641 199.243 59.8779 199.853 59.8779ZM204.889 56.9072C204.889 55.9639 205.07 55.123 205.434 54.3848C205.797 53.6465 206.318 53.0752 206.998 52.6709C207.684 52.2666 208.478 52.0645 209.38 52.0645C210.663 52.0645 211.709 52.457 212.518 53.2422C213.332 54.0273 213.786 55.0938 213.88 56.4414L213.897 57.0918C213.897 58.5508 213.49 59.7227 212.676 60.6074C211.861 61.4863 210.769 61.9258 209.397 61.9258C208.026 61.9258 206.931 61.4863 206.11 60.6074C205.296 59.7285 204.889 58.5332 204.889 57.0215V56.9072ZM207.429 57.0918C207.429 57.9941 207.599 58.6855 207.938 59.166C208.278 59.6406 208.765 59.8779 209.397 59.8779C210.013 59.8779 210.493 59.6436 210.839 59.1748C211.185 58.7002 211.357 57.9443 211.357 56.9072C211.357 56.0225 211.185 55.3369 210.839 54.8506C210.493 54.3643 210.007 54.1211 209.38 54.1211C208.759 54.1211 208.278 54.3643 207.938 54.8506C207.599 55.3311 207.429 56.0781 207.429 57.0918ZM220.612 59.1221C220.612 58.8115 220.457 58.5684 220.146 58.3926C219.842 58.2109 219.35 58.0498 218.67 57.9092C216.408 57.4346 215.277 56.4736 215.277 55.0264C215.277 54.1826 215.626 53.4795 216.323 52.917C217.026 52.3486 217.943 52.0645 219.074 52.0645C220.281 52.0645 221.245 52.3486 221.966 52.917C222.692 53.4854 223.056 54.2236 223.056 55.1318H220.516C220.516 54.7686 220.398 54.4697 220.164 54.2354C219.93 53.9951 219.563 53.875 219.065 53.875C218.638 53.875 218.307 53.9717 218.072 54.165C217.838 54.3584 217.721 54.6045 217.721 54.9033C217.721 55.1846 217.853 55.4131 218.116 55.5889C218.386 55.7588 218.837 55.9082 219.47 56.0371C220.103 56.1602 220.636 56.3008 221.069 56.459C222.411 56.9512 223.082 57.8037 223.082 59.0166C223.082 59.8838 222.71 60.5869 221.966 61.126C221.222 61.6592 220.261 61.9258 219.083 61.9258C218.286 61.9258 217.577 61.7852 216.956 61.5039C216.341 61.2168 215.857 60.8271 215.506 60.335C215.154 59.8369 214.979 59.3008 214.979 58.7266H217.387C217.41 59.1777 217.577 59.5234 217.888 59.7637C218.198 60.0039 218.614 60.124 219.136 60.124C219.622 60.124 219.988 60.0332 220.234 59.8516C220.486 59.6641 220.612 59.4209 220.612 59.1221ZM227.107 52.2402L227.187 53.3037C227.86 52.4775 228.771 52.0645 229.92 52.0645C231.145 52.0645 231.985 52.5479 232.442 53.5146C233.11 52.5479 234.062 52.0645 235.299 52.0645C236.33 52.0645 237.098 52.3662 237.602 52.9697C238.105 53.5674 238.357 54.4697 238.357 55.6768V61.75H235.809V55.6855C235.809 55.1465 235.703 54.7539 235.492 54.5078C235.281 54.2559 234.909 54.1299 234.376 54.1299C233.614 54.1299 233.087 54.4932 232.794 55.2197L232.803 61.75H230.263V55.6943C230.263 55.1436 230.154 54.7451 229.938 54.499C229.721 54.2529 229.352 54.1299 228.83 54.1299C228.109 54.1299 227.588 54.4287 227.266 55.0264V61.75H224.726V52.2402H227.107ZM244.694 61.9258C243.3 61.9258 242.163 61.498 241.284 60.6426C240.411 59.7871 239.975 58.6475 239.975 57.2236V56.9775C239.975 56.0225 240.159 55.1699 240.528 54.4199C240.897 53.6641 241.419 53.084 242.093 52.6797C242.772 52.2695 243.546 52.0645 244.413 52.0645C245.714 52.0645 246.736 52.4746 247.48 53.2949C248.23 54.1152 248.605 55.2783 248.605 56.7842V57.8213H242.55C242.632 58.4424 242.878 58.9404 243.288 59.3154C243.704 59.6904 244.229 59.8779 244.861 59.8779C245.84 59.8779 246.604 59.5234 247.155 58.8145L248.403 60.2119C248.022 60.751 247.507 61.1729 246.856 61.4775C246.206 61.7764 245.485 61.9258 244.694 61.9258ZM244.404 54.1211C243.9 54.1211 243.49 54.291 243.174 54.6309C242.863 54.9707 242.664 55.457 242.576 56.0898H246.109V55.8877C246.098 55.3252 245.945 54.8916 245.652 54.5869C245.359 54.2764 244.943 54.1211 244.404 54.1211ZM253.097 49.9023V52.2402H254.723V54.1035H253.097V58.8496C253.097 59.2012 253.164 59.4531 253.299 59.6055C253.434 59.7578 253.691 59.834 254.072 59.834C254.354 59.834 254.603 59.8135 254.819 59.7725V61.6973C254.321 61.8496 253.809 61.9258 253.281 61.9258C251.5 61.9258 250.592 61.0264 250.557 59.2275V54.1035H249.168V52.2402H250.557V49.9023H253.097ZM258.818 61.75H256.27V52.2402H258.818V61.75ZM256.12 49.7793C256.12 49.3984 256.246 49.085 256.498 48.8389C256.756 48.5928 257.104 48.4697 257.544 48.4697C257.978 48.4697 258.323 48.5928 258.581 48.8389C258.839 49.085 258.968 49.3984 258.968 49.7793C258.968 50.166 258.836 50.4824 258.572 50.7285C258.314 50.9746 257.972 51.0977 257.544 51.0977C257.116 51.0977 256.771 50.9746 256.507 50.7285C256.249 50.4824 256.12 50.166 256.12 49.7793ZM264.874 59.8779C265.343 59.8779 265.724 59.749 266.017 59.4912C266.31 59.2334 266.462 58.8906 266.474 58.4629H268.855C268.85 59.1074 268.674 59.6992 268.328 60.2383C267.982 60.7715 267.508 61.1875 266.904 61.4863C266.307 61.7793 265.645 61.9258 264.918 61.9258C263.559 61.9258 262.486 61.4951 261.701 60.6338C260.916 59.7666 260.523 58.5713 260.523 57.0479V56.8809C260.523 55.416 260.913 54.2471 261.692 53.374C262.472 52.501 263.541 52.0645 264.9 52.0645C266.09 52.0645 267.042 52.4043 267.757 53.084C268.478 53.7578 268.844 54.6572 268.855 55.7822H266.474C266.462 55.29 266.31 54.8916 266.017 54.5869C265.724 54.2764 265.337 54.1211 264.856 54.1211C264.265 54.1211 263.816 54.3379 263.512 54.7715C263.213 55.1992 263.063 55.8965 263.063 56.8633V57.127C263.063 58.1055 263.213 58.8086 263.512 59.2363C263.811 59.6641 264.265 59.8779 264.874 59.8779ZM275.456 59.1221C275.456 58.8115 275.301 58.5684 274.99 58.3926C274.686 58.2109 274.193 58.0498 273.514 57.9092C271.252 57.4346 270.121 56.4736 270.121 55.0264C270.121 54.1826 270.47 53.4795 271.167 52.917C271.87 52.3486 272.787 52.0645 273.918 52.0645C275.125 52.0645 276.089 52.3486 276.81 52.917C277.536 53.4854 277.899 54.2236 277.899 55.1318H275.359C275.359 54.7686 275.242 54.4697 275.008 54.2354C274.773 53.9951 274.407 53.875 273.909 53.875C273.481 53.875 273.15 53.9717 272.916 54.165C272.682 54.3584 272.564 54.6045 272.564 54.9033C272.564 55.1846 272.696 55.4131 272.96 55.5889C273.229 55.7588 273.681 55.9082 274.313 56.0371C274.946 56.1602 275.479 56.3008 275.913 56.459C277.255 56.9512 277.926 57.8037 277.926 59.0166C277.926 59.8838 277.554 60.5869 276.81 61.126C276.065 61.6592 275.104 61.9258 273.927 61.9258C273.13 61.9258 272.421 61.7852 271.8 61.5039C271.185 61.2168 270.701 60.8271 270.35 60.335C269.998 59.8369 269.822 59.3008 269.822 58.7266H272.23C272.254 59.1777 272.421 59.5234 272.731 59.7637C273.042 60.0039 273.458 60.124 273.979 60.124C274.466 60.124 274.832 60.0332 275.078 59.8516C275.33 59.6641 275.456 59.4209 275.456 59.1221Z" fill="white"/>
<path d="M37.2656 158.821H32.644V162.6H38.0127V163.75H31.2378V153.086H37.9395V154.243H32.644V157.671H37.2656V158.821ZM42.2095 158.718L43.9673 155.825H45.5493L42.9565 159.744L45.6299 163.75H44.0625L42.2314 160.784L40.4004 163.75H38.8257L41.499 159.744L38.9062 155.825H40.4736L42.2095 158.718ZM53.6865 159.875C53.6865 161.082 53.4106 162.053 52.8589 162.791C52.3071 163.528 51.5601 163.896 50.6177 163.896C49.6558 163.896 48.8989 163.591 48.3472 162.981V166.797H46.9922V155.825H48.23L48.2959 156.704C48.8477 156.021 49.6143 155.679 50.5957 155.679C51.5479 155.679 52.2998 156.038 52.8516 156.755C53.4082 157.473 53.6865 158.472 53.6865 159.751V159.875ZM52.3315 159.722C52.3315 158.828 52.1411 158.123 51.7603 157.605C51.3794 157.087 50.8569 156.829 50.1929 156.829C49.3726 156.829 48.7573 157.192 48.3472 157.92V161.707C48.7524 162.429 49.3726 162.791 50.2075 162.791C50.8569 162.791 51.3721 162.534 51.7529 162.021C52.1387 161.504 52.3315 160.737 52.3315 159.722ZM56.8872 163.75H55.5322V152.5H56.8872V163.75ZM58.7036 159.714C58.7036 158.938 58.855 158.24 59.1577 157.62C59.4653 157 59.8901 156.521 60.4321 156.184C60.979 155.847 61.6016 155.679 62.2998 155.679C63.3789 155.679 64.2505 156.052 64.9146 156.799C65.5835 157.546 65.918 158.54 65.918 159.78V159.875C65.918 160.647 65.769 161.34 65.4712 161.956C65.1782 162.566 64.7559 163.042 64.2041 163.384C63.6572 163.726 63.0273 163.896 62.3145 163.896C61.2402 163.896 60.3687 163.523 59.6997 162.776C59.0356 162.029 58.7036 161.04 58.7036 159.81V159.714ZM60.0659 159.875C60.0659 160.754 60.2686 161.46 60.6738 161.992C61.084 162.524 61.6309 162.791 62.3145 162.791C63.0029 162.791 63.5498 162.522 63.9551 161.985C64.3604 161.443 64.563 160.686 64.563 159.714C64.563 158.845 64.3555 158.142 63.9404 157.605C63.5303 157.063 62.9834 156.792 62.2998 156.792C61.6309 156.792 61.0913 157.058 60.6812 157.59C60.271 158.123 60.0659 158.884 60.0659 159.875ZM71.4478 157.041C71.2427 157.007 71.0205 156.99 70.7812 156.99C69.8926 156.99 69.2896 157.368 68.9722 158.125V163.75H67.6172V155.825H68.9355L68.9575 156.741C69.4019 156.033 70.0317 155.679 70.8472 155.679C71.1108 155.679 71.311 155.713 71.4478 155.781V157.041ZM75.8423 163.896C74.7681 163.896 73.894 163.545 73.2202 162.842C72.5464 162.134 72.2095 161.189 72.2095 160.007V159.758C72.2095 158.972 72.3584 158.271 72.6562 157.656C72.959 157.036 73.3789 156.553 73.916 156.206C74.458 155.854 75.0439 155.679 75.6738 155.679C76.7041 155.679 77.5049 156.018 78.0762 156.697C78.6475 157.375 78.9331 158.347 78.9331 159.612V160.176H73.5645C73.584 160.957 73.811 161.589 74.2456 162.073C74.6851 162.551 75.2417 162.791 75.9155 162.791C76.394 162.791 76.7993 162.693 77.1313 162.498C77.4634 162.302 77.7539 162.043 78.0029 161.721L78.8306 162.366C78.1665 163.386 77.1704 163.896 75.8423 163.896ZM75.6738 156.792C75.127 156.792 74.668 156.992 74.2969 157.393C73.9258 157.788 73.6963 158.345 73.6084 159.062H77.5781V158.96C77.5391 158.271 77.3535 157.739 77.0215 157.363C76.6895 156.982 76.2402 156.792 75.6738 156.792ZM83.8696 159.714C83.8696 158.938 84.021 158.24 84.3237 157.62C84.6313 157 85.0562 156.521 85.5981 156.184C86.145 155.847 86.7676 155.679 87.4658 155.679C88.5449 155.679 89.4165 156.052 90.0806 156.799C90.7495 157.546 91.084 158.54 91.084 159.78V159.875C91.084 160.647 90.9351 161.34 90.6372 161.956C90.3442 162.566 89.9219 163.042 89.3701 163.384C88.8232 163.726 88.1934 163.896 87.4805 163.896C86.4062 163.896 85.5347 163.523 84.8657 162.776C84.2017 162.029 83.8696 161.04 83.8696 159.81V159.714ZM85.2319 159.875C85.2319 160.754 85.4346 161.46 85.8398 161.992C86.25 162.524 86.7969 162.791 87.4805 162.791C88.1689 162.791 88.7158 162.522 89.1211 161.985C89.5264 161.443 89.729 160.686 89.729 159.714C89.729 158.845 89.5215 158.142 89.1064 157.605C88.6963 157.063 88.1494 156.792 87.4658 156.792C86.7969 156.792 86.2573 157.058 85.8472 157.59C85.437 158.123 85.2319 158.884 85.2319 159.875ZM97.6758 162.966C97.1484 163.586 96.3745 163.896 95.354 163.896C94.5093 163.896 93.8647 163.652 93.4204 163.164C92.981 162.671 92.7588 161.943 92.7539 160.981V155.825H94.1089V160.945C94.1089 162.146 94.5972 162.747 95.5737 162.747C96.6089 162.747 97.2974 162.361 97.6392 161.589V155.825H98.9941V163.75H97.7051L97.6758 162.966ZM104.89 157.041C104.685 157.007 104.463 156.99 104.224 156.99C103.335 156.99 102.732 157.368 102.415 158.125V163.75H101.06V155.825H102.378L102.4 156.741C102.844 156.033 103.474 155.679 104.29 155.679C104.553 155.679 104.753 155.713 104.89 155.781V157.041ZM114.478 161.648C114.478 161.282 114.338 160.999 114.06 160.798C113.787 160.593 113.306 160.417 112.617 160.271C111.934 160.125 111.389 159.949 110.984 159.744C110.583 159.539 110.286 159.294 110.09 159.011C109.9 158.728 109.805 158.391 109.805 158C109.805 157.351 110.078 156.802 110.625 156.353C111.177 155.903 111.88 155.679 112.734 155.679C113.633 155.679 114.36 155.911 114.917 156.375C115.479 156.838 115.759 157.432 115.759 158.154H114.397C114.397 157.783 114.238 157.463 113.921 157.195C113.608 156.926 113.213 156.792 112.734 156.792C112.241 156.792 111.855 156.899 111.577 157.114C111.299 157.329 111.16 157.61 111.16 157.957C111.16 158.284 111.289 158.53 111.548 158.696C111.807 158.862 112.273 159.021 112.947 159.172C113.625 159.324 114.175 159.504 114.595 159.714C115.015 159.924 115.325 160.178 115.525 160.476C115.73 160.769 115.833 161.128 115.833 161.553C115.833 162.261 115.549 162.83 114.983 163.259C114.417 163.684 113.682 163.896 112.778 163.896C112.144 163.896 111.582 163.784 111.094 163.56C110.605 163.335 110.222 163.022 109.944 162.622C109.67 162.217 109.534 161.78 109.534 161.311H110.889C110.913 161.765 111.094 162.126 111.431 162.395C111.772 162.659 112.222 162.791 112.778 162.791C113.291 162.791 113.701 162.688 114.009 162.483C114.321 162.273 114.478 161.995 114.478 161.648ZM117.239 159.714C117.239 158.938 117.39 158.24 117.693 157.62C118 157 118.425 156.521 118.967 156.184C119.514 155.847 120.137 155.679 120.835 155.679C121.914 155.679 122.786 156.052 123.45 156.799C124.119 157.546 124.453 158.54 124.453 159.78V159.875C124.453 160.647 124.304 161.34 124.006 161.956C123.713 162.566 123.291 163.042 122.739 163.384C122.192 163.726 121.562 163.896 120.85 163.896C119.775 163.896 118.904 163.523 118.235 162.776C117.571 162.029 117.239 161.04 117.239 159.81V159.714ZM118.601 159.875C118.601 160.754 118.804 161.46 119.209 161.992C119.619 162.524 120.166 162.791 120.85 162.791C121.538 162.791 122.085 162.522 122.49 161.985C122.896 161.443 123.098 160.686 123.098 159.714C123.098 158.845 122.891 158.142 122.476 157.605C122.065 157.063 121.519 156.792 120.835 156.792C120.166 156.792 119.626 157.058 119.216 157.59C118.806 158.123 118.601 158.884 118.601 159.875ZM127.625 163.75H126.27V152.5H127.625V163.75ZM134.692 162.966C134.165 163.586 133.391 163.896 132.371 163.896C131.526 163.896 130.881 163.652 130.437 163.164C129.998 162.671 129.775 161.943 129.771 160.981V155.825H131.125V160.945C131.125 162.146 131.614 162.747 132.59 162.747C133.625 162.747 134.314 162.361 134.656 161.589V155.825H136.011V163.75H134.722L134.692 162.966ZM139.915 153.906V155.825H141.394V156.873H139.915V161.787C139.915 162.104 139.98 162.344 140.112 162.505C140.244 162.661 140.469 162.739 140.786 162.739C140.942 162.739 141.157 162.71 141.431 162.651V163.75C141.074 163.848 140.728 163.896 140.391 163.896C139.785 163.896 139.329 163.713 139.021 163.347C138.713 162.981 138.56 162.461 138.56 161.787V156.873H137.117V155.825H138.56V153.906H139.915ZM144.456 163.75H143.101V155.825H144.456V163.75ZM142.991 153.723C142.991 153.503 143.057 153.318 143.188 153.167C143.325 153.015 143.525 152.939 143.789 152.939C144.053 152.939 144.253 153.015 144.39 153.167C144.526 153.318 144.595 153.503 144.595 153.723C144.595 153.943 144.526 154.126 144.39 154.272C144.253 154.419 144.053 154.492 143.789 154.492C143.525 154.492 143.325 154.419 143.188 154.272C143.057 154.126 142.991 153.943 142.991 153.723ZM146.272 159.714C146.272 158.938 146.423 158.24 146.726 157.62C147.034 157 147.458 156.521 148 156.184C148.547 155.847 149.17 155.679 149.868 155.679C150.947 155.679 151.819 156.052 152.483 156.799C153.152 157.546 153.486 158.54 153.486 159.78V159.875C153.486 160.647 153.337 161.34 153.04 161.956C152.747 162.566 152.324 163.042 151.772 163.384C151.226 163.726 150.596 163.896 149.883 163.896C148.809 163.896 147.937 163.523 147.268 162.776C146.604 162.029 146.272 161.04 146.272 159.81V159.714ZM147.634 159.875C147.634 160.754 147.837 161.46 148.242 161.992C148.652 162.524 149.199 162.791 149.883 162.791C150.571 162.791 151.118 162.522 151.523 161.985C151.929 161.443 152.131 160.686 152.131 159.714C152.131 158.845 151.924 158.142 151.509 157.605C151.099 157.063 150.552 156.792 149.868 156.792C149.199 156.792 148.66 157.058 148.25 157.59C147.839 158.123 147.634 158.884 147.634 159.875ZM156.467 155.825L156.511 156.821C157.117 156.06 157.908 155.679 158.884 155.679C160.559 155.679 161.404 156.624 161.418 158.513V163.75H160.063V158.506C160.059 157.935 159.927 157.512 159.668 157.239C159.414 156.965 159.016 156.829 158.474 156.829C158.035 156.829 157.649 156.946 157.317 157.18C156.985 157.415 156.726 157.722 156.541 158.103V163.75H155.186V155.825H156.467ZM168.076 161.648C168.076 161.282 167.937 160.999 167.659 160.798C167.385 160.593 166.904 160.417 166.216 160.271C165.532 160.125 164.988 159.949 164.583 159.744C164.182 159.539 163.884 159.294 163.689 159.011C163.499 158.728 163.403 158.391 163.403 158C163.403 157.351 163.677 156.802 164.224 156.353C164.775 155.903 165.479 155.679 166.333 155.679C167.231 155.679 167.959 155.911 168.516 156.375C169.077 156.838 169.358 157.432 169.358 158.154H167.996C167.996 157.783 167.837 157.463 167.52 157.195C167.207 156.926 166.812 156.792 166.333 156.792C165.84 156.792 165.454 156.899 165.176 157.114C164.897 157.329 164.758 157.61 164.758 157.957C164.758 158.284 164.888 158.53 165.146 158.696C165.405 158.862 165.872 159.021 166.545 159.172C167.224 159.324 167.773 159.504 168.193 159.714C168.613 159.924 168.923 160.178 169.124 160.476C169.329 160.769 169.431 161.128 169.431 161.553C169.431 162.261 169.148 162.83 168.582 163.259C168.015 163.684 167.28 163.896 166.377 163.896C165.742 163.896 165.181 163.784 164.692 163.56C164.204 163.335 163.821 163.022 163.542 162.622C163.269 162.217 163.132 161.78 163.132 161.311H164.487C164.512 161.765 164.692 162.126 165.029 162.395C165.371 162.659 165.82 162.791 166.377 162.791C166.89 162.791 167.3 162.688 167.607 162.483C167.92 162.273 168.076 161.995 168.076 161.648ZM175.583 163.75V156.873H174.331V155.825H175.583V155.012C175.583 154.163 175.811 153.506 176.265 153.042C176.719 152.578 177.361 152.346 178.191 152.346C178.503 152.346 178.813 152.388 179.121 152.471L179.048 153.569C178.818 153.525 178.574 153.503 178.315 153.503C177.876 153.503 177.537 153.633 177.297 153.892C177.058 154.146 176.938 154.512 176.938 154.99V155.825H178.63V156.873H176.938V163.75H175.583ZM179.773 159.714C179.773 158.938 179.924 158.24 180.227 157.62C180.535 157 180.959 156.521 181.501 156.184C182.048 155.847 182.671 155.679 183.369 155.679C184.448 155.679 185.32 156.052 185.984 156.799C186.653 157.546 186.987 158.54 186.987 159.78V159.875C186.987 160.647 186.838 161.34 186.541 161.956C186.248 162.566 185.825 163.042 185.273 163.384C184.727 163.726 184.097 163.896 183.384 163.896C182.31 163.896 181.438 163.523 180.769 162.776C180.105 162.029 179.773 161.04 179.773 159.81V159.714ZM181.135 159.875C181.135 160.754 181.338 161.46 181.743 161.992C182.153 162.524 182.7 162.791 183.384 162.791C184.072 162.791 184.619 162.522 185.024 161.985C185.43 161.443 185.632 160.686 185.632 159.714C185.632 158.845 185.425 158.142 185.01 157.605C184.6 157.063 184.053 156.792 183.369 156.792C182.7 156.792 182.161 157.058 181.75 157.59C181.34 158.123 181.135 158.884 181.135 159.875ZM192.517 157.041C192.312 157.007 192.09 156.99 191.851 156.99C190.962 156.99 190.359 157.368 190.042 158.125V163.75H188.687V155.825H190.005L190.027 156.741C190.471 156.033 191.101 155.679 191.917 155.679C192.18 155.679 192.38 155.713 192.517 155.781V157.041ZM204.199 159.875C204.199 161.086 203.921 162.061 203.364 162.798C202.808 163.53 202.061 163.896 201.123 163.896C200.122 163.896 199.348 163.542 198.801 162.834L198.735 163.75H197.49V152.5H198.845V156.697C199.392 156.018 200.146 155.679 201.108 155.679C202.07 155.679 202.825 156.042 203.372 156.77C203.923 157.498 204.199 158.494 204.199 159.758V159.875ZM202.844 159.722C202.844 158.799 202.666 158.086 202.31 157.583C201.953 157.08 201.44 156.829 200.771 156.829C199.878 156.829 199.236 157.244 198.845 158.074V161.501C199.26 162.332 199.907 162.747 200.786 162.747C201.436 162.747 201.941 162.495 202.302 161.992C202.664 161.489 202.844 160.732 202.844 159.722ZM209.202 163.896C208.127 163.896 207.253 163.545 206.58 162.842C205.906 162.134 205.569 161.189 205.569 160.007V159.758C205.569 158.972 205.718 158.271 206.016 157.656C206.318 157.036 206.738 156.553 207.275 156.206C207.817 155.854 208.403 155.679 209.033 155.679C210.063 155.679 210.864 156.018 211.436 156.697C212.007 157.375 212.292 158.347 212.292 159.612V160.176H206.924C206.943 160.957 207.17 161.589 207.605 162.073C208.044 162.551 208.601 162.791 209.275 162.791C209.753 162.791 210.159 162.693 210.491 162.498C210.823 162.302 211.113 162.043 211.362 161.721L212.19 162.366C211.526 163.386 210.53 163.896 209.202 163.896ZM209.033 156.792C208.486 156.792 208.027 156.992 207.656 157.393C207.285 157.788 207.056 158.345 206.968 159.062H210.938V158.96C210.898 158.271 210.713 157.739 210.381 157.363C210.049 156.982 209.6 156.792 209.033 156.792ZM218.76 163.75C218.682 163.594 218.618 163.315 218.569 162.915C217.939 163.569 217.188 163.896 216.313 163.896C215.532 163.896 214.89 163.677 214.387 163.237C213.889 162.793 213.64 162.231 213.64 161.553C213.64 160.728 213.953 160.088 214.578 159.634C215.208 159.175 216.091 158.945 217.229 158.945H218.547V158.323C218.547 157.849 218.406 157.473 218.123 157.195C217.839 156.912 217.422 156.77 216.87 156.77C216.387 156.77 215.981 156.892 215.654 157.136C215.327 157.38 215.164 157.676 215.164 158.022H213.801C213.801 157.627 213.94 157.246 214.219 156.88C214.502 156.509 214.883 156.216 215.361 156.001C215.845 155.786 216.375 155.679 216.951 155.679C217.864 155.679 218.579 155.908 219.097 156.367C219.614 156.821 219.883 157.449 219.902 158.25V161.897C219.902 162.625 219.995 163.203 220.181 163.633V163.75H218.76ZM216.511 162.717C216.936 162.717 217.339 162.607 217.72 162.388C218.101 162.168 218.376 161.882 218.547 161.531V159.905H217.485C215.825 159.905 214.995 160.391 214.995 161.362C214.995 161.787 215.137 162.119 215.42 162.358C215.703 162.598 216.067 162.717 216.511 162.717ZM226.919 162.966C226.392 163.586 225.618 163.896 224.597 163.896C223.752 163.896 223.108 163.652 222.664 163.164C222.224 162.671 222.002 161.943 221.997 160.981V155.825H223.352V160.945C223.352 162.146 223.84 162.747 224.817 162.747C225.852 162.747 226.541 162.361 226.882 161.589V155.825H228.237V163.75H226.948L226.919 162.966ZM232.141 153.906V155.825H233.621V156.873H232.141V161.787C232.141 162.104 232.207 162.344 232.339 162.505C232.471 162.661 232.695 162.739 233.013 162.739C233.169 162.739 233.384 162.71 233.657 162.651V163.75C233.301 163.848 232.954 163.896 232.617 163.896C232.012 163.896 231.555 163.713 231.248 163.347C230.94 162.981 230.786 162.461 230.786 161.787V156.873H229.343V155.825H230.786V153.906H232.141ZM237.803 161.765L239.648 155.825H241.099L237.913 164.973C237.419 166.292 236.636 166.951 235.562 166.951L235.305 166.929L234.8 166.833V165.735L235.166 165.764C235.625 165.764 235.981 165.671 236.235 165.486C236.494 165.3 236.707 164.961 236.873 164.468L237.173 163.662L234.346 155.825H235.825L237.803 161.765ZM250.928 163.75C250.85 163.594 250.786 163.315 250.737 162.915C250.107 163.569 249.355 163.896 248.481 163.896C247.7 163.896 247.058 163.677 246.555 163.237C246.057 162.793 245.808 162.231 245.808 161.553C245.808 160.728 246.121 160.088 246.746 159.634C247.375 159.175 248.259 158.945 249.397 158.945H250.715V158.323C250.715 157.849 250.574 157.473 250.291 157.195C250.007 156.912 249.59 156.77 249.038 156.77C248.555 156.77 248.149 156.892 247.822 157.136C247.495 157.38 247.332 157.676 247.332 158.022H245.969C245.969 157.627 246.108 157.246 246.387 156.88C246.67 156.509 247.051 156.216 247.529 156.001C248.013 155.786 248.542 155.679 249.119 155.679C250.032 155.679 250.747 155.908 251.265 156.367C251.782 156.821 252.051 157.449 252.07 158.25V161.897C252.07 162.625 252.163 163.203 252.349 163.633V163.75H250.928ZM248.679 162.717C249.104 162.717 249.507 162.607 249.888 162.388C250.269 162.168 250.544 161.882 250.715 161.531V159.905H249.653C247.993 159.905 247.163 160.391 247.163 161.362C247.163 161.787 247.305 162.119 247.588 162.358C247.871 162.598 248.235 162.717 248.679 162.717ZM255.476 155.825L255.52 156.821C256.125 156.06 256.917 155.679 257.893 155.679C259.568 155.679 260.413 156.624 260.427 158.513V163.75H259.072V158.506C259.067 157.935 258.936 157.512 258.677 157.239C258.423 156.965 258.025 156.829 257.483 156.829C257.043 156.829 256.658 156.946 256.326 157.18C255.994 157.415 255.735 157.722 255.549 158.103V163.75H254.194V155.825H255.476ZM262.141 159.722C262.141 158.506 262.429 157.529 263.005 156.792C263.582 156.05 264.336 155.679 265.269 155.679C266.196 155.679 266.931 155.996 267.473 156.631V152.5H268.828V163.75H267.583L267.517 162.9C266.975 163.564 266.221 163.896 265.254 163.896C264.336 163.896 263.586 163.521 263.005 162.769C262.429 162.017 262.141 161.035 262.141 159.824V159.722ZM263.496 159.875C263.496 160.774 263.682 161.477 264.053 161.985C264.424 162.493 264.937 162.747 265.591 162.747C266.45 162.747 267.078 162.361 267.473 161.589V157.949C267.068 157.202 266.445 156.829 265.605 156.829C264.941 156.829 264.424 157.085 264.053 157.598C263.682 158.11 263.496 158.87 263.496 159.875ZM277.837 162.791C278.32 162.791 278.743 162.644 279.104 162.351C279.465 162.058 279.666 161.692 279.705 161.252H280.986C280.962 161.707 280.806 162.139 280.518 162.549C280.229 162.959 279.844 163.286 279.36 163.53C278.882 163.774 278.374 163.896 277.837 163.896C276.758 163.896 275.898 163.538 275.259 162.82C274.624 162.097 274.307 161.111 274.307 159.861V159.634C274.307 158.862 274.448 158.176 274.731 157.576C275.015 156.975 275.42 156.509 275.947 156.177C276.479 155.845 277.107 155.679 277.83 155.679C278.718 155.679 279.456 155.945 280.042 156.477C280.632 157.009 280.947 157.7 280.986 158.55H279.705C279.666 158.037 279.47 157.617 279.119 157.29C278.772 156.958 278.342 156.792 277.83 156.792C277.141 156.792 276.606 157.041 276.226 157.539C275.85 158.032 275.662 158.748 275.662 159.685V159.941C275.662 160.854 275.85 161.558 276.226 162.051C276.602 162.544 277.139 162.791 277.837 162.791ZM282.151 159.714C282.151 158.938 282.302 158.24 282.605 157.62C282.913 157 283.337 156.521 283.879 156.184C284.426 155.847 285.049 155.679 285.747 155.679C286.826 155.679 287.698 156.052 288.362 156.799C289.031 157.546 289.365 158.54 289.365 159.78V159.875C289.365 160.647 289.216 161.34 288.918 161.956C288.625 162.566 288.203 163.042 287.651 163.384C287.104 163.726 286.475 163.896 285.762 163.896C284.688 163.896 283.816 163.523 283.147 162.776C282.483 162.029 282.151 161.04 282.151 159.81V159.714ZM283.513 159.875C283.513 160.754 283.716 161.46 284.121 161.992C284.531 162.524 285.078 162.791 285.762 162.791C286.45 162.791 286.997 162.522 287.402 161.985C287.808 161.443 288.01 160.686 288.01 159.714C288.01 158.845 287.803 158.142 287.388 157.605C286.978 157.063 286.431 156.792 285.747 156.792C285.078 156.792 284.539 157.058 284.128 157.59C283.718 158.123 283.513 158.884 283.513 159.875ZM295.679 161.648C295.679 161.282 295.54 160.999 295.261 160.798C294.988 160.593 294.507 160.417 293.818 160.271C293.135 160.125 292.59 159.949 292.185 159.744C291.785 159.539 291.487 159.294 291.292 159.011C291.101 158.728 291.006 158.391 291.006 158C291.006 157.351 291.279 156.802 291.826 156.353C292.378 155.903 293.081 155.679 293.936 155.679C294.834 155.679 295.562 155.911 296.118 156.375C296.68 156.838 296.96 157.432 296.96 158.154H295.598C295.598 157.783 295.439 157.463 295.122 157.195C294.81 156.926 294.414 156.792 293.936 156.792C293.442 156.792 293.057 156.899 292.778 157.114C292.5 157.329 292.361 157.61 292.361 157.957C292.361 158.284 292.49 158.53 292.749 158.696C293.008 158.862 293.474 159.021 294.148 159.172C294.827 159.324 295.376 159.504 295.796 159.714C296.216 159.924 296.526 160.178 296.726 160.476C296.931 160.769 297.034 161.128 297.034 161.553C297.034 162.261 296.75 162.83 296.184 163.259C295.618 163.684 294.883 163.896 293.979 163.896C293.345 163.896 292.783 163.784 292.295 163.56C291.807 163.335 291.423 163.022 291.145 162.622C290.872 162.217 290.735 161.78 290.735 161.311H292.09C292.114 161.765 292.295 162.126 292.632 162.395C292.974 162.659 293.423 162.791 293.979 162.791C294.492 162.791 294.902 162.688 295.21 162.483C295.522 162.273 295.679 161.995 295.679 161.648ZM300.073 155.825L300.11 156.704C300.691 156.021 301.475 155.679 302.461 155.679C303.569 155.679 304.324 156.104 304.724 156.953C304.988 156.572 305.33 156.265 305.75 156.03C306.174 155.796 306.675 155.679 307.251 155.679C308.989 155.679 309.873 156.599 309.902 158.44V163.75H308.547V158.521C308.547 157.954 308.418 157.532 308.159 157.253C307.9 156.97 307.466 156.829 306.855 156.829C306.353 156.829 305.935 156.98 305.603 157.283C305.271 157.581 305.078 157.983 305.024 158.491V163.75H303.662V158.557C303.662 157.405 303.098 156.829 301.97 156.829C301.082 156.829 300.474 157.207 300.146 157.964V163.75H298.792V155.825H300.073ZM315.242 163.896C314.167 163.896 313.293 163.545 312.62 162.842C311.946 162.134 311.609 161.189 311.609 160.007V159.758C311.609 158.972 311.758 158.271 312.056 157.656C312.358 157.036 312.778 156.553 313.315 156.206C313.857 155.854 314.443 155.679 315.073 155.679C316.104 155.679 316.904 156.018 317.476 156.697C318.047 157.375 318.333 158.347 318.333 159.612V160.176H312.964C312.983 160.957 313.21 161.589 313.645 162.073C314.084 162.551 314.641 162.791 315.315 162.791C315.793 162.791 316.199 162.693 316.531 162.498C316.863 162.302 317.153 162.043 317.402 161.721L318.23 162.366C317.566 163.386 316.57 163.896 315.242 163.896ZM315.073 156.792C314.526 156.792 314.067 156.992 313.696 157.393C313.325 157.788 313.096 158.345 313.008 159.062H316.978V158.96C316.938 158.271 316.753 157.739 316.421 157.363C316.089 156.982 315.64 156.792 315.073 156.792ZM321.746 153.906V155.825H323.225V156.873H321.746V161.787C321.746 162.104 321.812 162.344 321.943 162.505C322.075 162.661 322.3 162.739 322.617 162.739C322.773 162.739 322.988 162.71 323.262 162.651V163.75C322.905 163.848 322.559 163.896 322.222 163.896C321.616 163.896 321.16 163.713 320.852 163.347C320.544 162.981 320.391 162.461 320.391 161.787V156.873H318.948V155.825H320.391V153.906H321.746ZM326.287 163.75H324.932V155.825H326.287V163.75ZM324.822 153.723C324.822 153.503 324.888 153.318 325.02 153.167C325.156 153.015 325.356 152.939 325.62 152.939C325.884 152.939 326.084 153.015 326.221 153.167C326.357 153.318 326.426 153.503 326.426 153.723C326.426 153.943 326.357 154.126 326.221 154.272C326.084 154.419 325.884 154.492 325.62 154.492C325.356 154.492 325.156 154.419 325.02 154.272C324.888 154.126 324.822 153.943 324.822 153.723ZM331.641 162.791C332.124 162.791 332.546 162.644 332.908 162.351C333.269 162.058 333.469 161.692 333.508 161.252H334.79C334.766 161.707 334.609 162.139 334.321 162.549C334.033 162.959 333.647 163.286 333.164 163.53C332.686 163.774 332.178 163.896 331.641 163.896C330.562 163.896 329.702 163.538 329.062 162.82C328.428 162.097 328.11 161.111 328.11 159.861V159.634C328.11 158.862 328.252 158.176 328.535 157.576C328.818 156.975 329.224 156.509 329.751 156.177C330.283 155.845 330.911 155.679 331.633 155.679C332.522 155.679 333.259 155.945 333.845 156.477C334.436 157.009 334.751 157.7 334.79 158.55H333.508C333.469 158.037 333.274 157.617 332.922 157.29C332.576 156.958 332.146 156.792 331.633 156.792C330.945 156.792 330.41 157.041 330.029 157.539C329.653 158.032 329.465 158.748 329.465 159.685V159.941C329.465 160.854 329.653 161.558 330.029 162.051C330.405 162.544 330.942 162.791 331.641 162.791ZM340.928 161.648C340.928 161.282 340.789 160.999 340.51 160.798C340.237 160.593 339.756 160.417 339.067 160.271C338.384 160.125 337.839 159.949 337.434 159.744C337.034 159.539 336.736 159.294 336.541 159.011C336.35 158.728 336.255 158.391 336.255 158C336.255 157.351 336.528 156.802 337.075 156.353C337.627 155.903 338.33 155.679 339.185 155.679C340.083 155.679 340.811 155.911 341.367 156.375C341.929 156.838 342.209 157.432 342.209 158.154H340.847C340.847 157.783 340.688 157.463 340.371 157.195C340.059 156.926 339.663 156.792 339.185 156.792C338.691 156.792 338.306 156.899 338.027 157.114C337.749 157.329 337.61 157.61 337.61 157.957C337.61 158.284 337.739 158.53 337.998 158.696C338.257 158.862 338.723 159.021 339.397 159.172C340.076 159.324 340.625 159.504 341.045 159.714C341.465 159.924 341.775 160.178 341.975 160.476C342.18 160.769 342.283 161.128 342.283 161.553C342.283 162.261 342 162.83 341.433 163.259C340.867 163.684 340.132 163.896 339.229 163.896C338.594 163.896 338.032 163.784 337.544 163.56C337.056 163.335 336.672 163.022 336.394 162.622C336.121 162.217 335.984 161.78 335.984 161.311H337.339C337.363 161.765 337.544 162.126 337.881 162.395C338.223 162.659 338.672 162.791 339.229 162.791C339.741 162.791 340.151 162.688 340.459 162.483C340.771 162.273 340.928 161.995 340.928 161.648ZM344.077 163.04C344.077 162.805 344.146 162.61 344.282 162.454C344.424 162.297 344.634 162.219 344.912 162.219C345.19 162.219 345.4 162.297 345.542 162.454C345.688 162.61 345.762 162.805 345.762 163.04C345.762 163.264 345.688 163.452 345.542 163.604C345.4 163.755 345.19 163.831 344.912 163.831C344.634 163.831 344.424 163.755 344.282 163.604C344.146 163.452 344.077 163.264 344.077 163.04Z" fill="white"/>
<rect x="30" y="175" width="358" height="2" fill="white"/>
<path d="M31.2378 114.75V104.086H34.248C35.1758 104.086 35.9961 104.291 36.709 104.701C37.4219 105.111 37.9712 105.695 38.3569 106.452C38.7476 107.208 38.9453 108.078 38.9502 109.059V109.74C38.9502 110.746 38.7549 111.627 38.3643 112.384C37.9785 113.141 37.4243 113.722 36.7017 114.127C35.9839 114.533 35.1465 114.74 34.1895 114.75H31.2378ZM32.644 105.243V113.6H34.1235C35.2075 113.6 36.0498 113.263 36.6504 112.589C37.2559 111.916 37.5586 110.956 37.5586 109.711V109.088C37.5586 107.877 37.2729 106.938 36.7017 106.269C36.1353 105.595 35.3296 105.253 34.2847 105.243H32.644ZM42.3413 114.75H40.9863V106.825H42.3413V114.75ZM40.8765 104.723C40.8765 104.503 40.9424 104.318 41.0742 104.167C41.2109 104.015 41.4111 103.939 41.6748 103.939C41.9385 103.939 42.1387 104.015 42.2754 104.167C42.4121 104.318 42.4805 104.503 42.4805 104.723C42.4805 104.943 42.4121 105.126 42.2754 105.272C42.1387 105.419 41.9385 105.492 41.6748 105.492C41.4111 105.492 41.2109 105.419 41.0742 105.272C40.9424 105.126 40.8765 104.943 40.8765 104.723ZM49.1309 112.648C49.1309 112.282 48.9917 111.999 48.7134 111.798C48.4399 111.593 47.959 111.417 47.2705 111.271C46.5869 111.125 46.0425 110.949 45.6372 110.744C45.2368 110.539 44.939 110.294 44.7437 110.011C44.5532 109.728 44.458 109.391 44.458 109C44.458 108.351 44.7314 107.802 45.2783 107.353C45.8301 106.903 46.5332 106.679 47.3877 106.679C48.2861 106.679 49.0137 106.911 49.5703 107.375C50.1318 107.838 50.4126 108.432 50.4126 109.154H49.0503C49.0503 108.783 48.8916 108.463 48.5742 108.195C48.2617 107.926 47.8662 107.792 47.3877 107.792C46.8945 107.792 46.5088 107.899 46.2305 108.114C45.9521 108.329 45.813 108.61 45.813 108.957C45.813 109.284 45.9424 109.53 46.2012 109.696C46.46 109.862 46.9263 110.021 47.6001 110.172C48.2788 110.324 48.8281 110.504 49.248 110.714C49.668 110.924 49.978 111.178 50.1782 111.476C50.3833 111.769 50.4858 112.128 50.4858 112.553C50.4858 113.261 50.2026 113.83 49.6362 114.259C49.0698 114.684 48.335 114.896 47.4316 114.896C46.7969 114.896 46.2354 114.784 45.7471 114.56C45.2588 114.335 44.8755 114.022 44.5972 113.622C44.3237 113.217 44.187 112.78 44.187 112.311H45.542C45.5664 112.765 45.7471 113.126 46.084 113.395C46.4258 113.659 46.875 113.791 47.4316 113.791C47.9443 113.791 48.3545 113.688 48.6621 113.483C48.9746 113.273 49.1309 112.995 49.1309 112.648ZM55.4297 113.791C55.9131 113.791 56.3354 113.644 56.6968 113.351C57.0581 113.058 57.2583 112.692 57.2974 112.252H58.5791C58.5547 112.707 58.3984 113.139 58.1104 113.549C57.8223 113.959 57.4365 114.286 56.9531 114.53C56.4746 114.774 55.9668 114.896 55.4297 114.896C54.3506 114.896 53.4912 114.538 52.8516 113.82C52.2168 113.097 51.8994 112.111 51.8994 110.861V110.634C51.8994 109.862 52.041 109.176 52.3242 108.576C52.6074 107.975 53.0127 107.509 53.54 107.177C54.0723 106.845 54.6997 106.679 55.4224 106.679C56.311 106.679 57.0483 106.945 57.6343 107.477C58.2251 108.009 58.54 108.7 58.5791 109.55H57.2974C57.2583 109.037 57.063 108.617 56.7114 108.29C56.3647 107.958 55.9351 107.792 55.4224 107.792C54.7339 107.792 54.1992 108.041 53.8184 108.539C53.4424 109.032 53.2544 109.748 53.2544 110.685V110.941C53.2544 111.854 53.4424 112.558 53.8184 113.051C54.1943 113.544 54.7314 113.791 55.4297 113.791ZM59.7437 110.714C59.7437 109.938 59.895 109.24 60.1978 108.62C60.5054 108 60.9302 107.521 61.4722 107.184C62.019 106.847 62.6416 106.679 63.3398 106.679C64.4189 106.679 65.2905 107.052 65.9546 107.799C66.6235 108.546 66.958 109.54 66.958 110.78V110.875C66.958 111.647 66.8091 112.34 66.5112 112.956C66.2183 113.566 65.7959 114.042 65.2441 114.384C64.6973 114.726 64.0674 114.896 63.3545 114.896C62.2803 114.896 61.4087 114.523 60.7397 113.776C60.0757 113.029 59.7437 112.04 59.7437 110.81V110.714ZM61.106 110.875C61.106 111.754 61.3086 112.46 61.7139 112.992C62.124 113.524 62.6709 113.791 63.3545 113.791C64.043 113.791 64.5898 113.522 64.9951 112.985C65.4004 112.443 65.603 111.686 65.603 110.714C65.603 109.845 65.3955 109.142 64.9805 108.605C64.5703 108.063 64.0234 107.792 63.3398 107.792C62.6709 107.792 62.1313 108.058 61.7212 108.59C61.311 109.123 61.106 109.884 61.106 110.875ZM71.1548 112.912L73.1177 106.825H74.502L71.6602 114.75H70.6274L67.7563 106.825H69.1406L71.1548 112.912ZM78.9917 114.896C77.9175 114.896 77.0435 114.545 76.3696 113.842C75.6958 113.134 75.3589 112.189 75.3589 111.007V110.758C75.3589 109.972 75.5078 109.271 75.8057 108.656C76.1084 108.036 76.5283 107.553 77.0654 107.206C77.6074 106.854 78.1934 106.679 78.8232 106.679C79.8535 106.679 80.6543 107.018 81.2256 107.697C81.7969 108.375 82.0825 109.347 82.0825 110.612V111.176H76.7139C76.7334 111.957 76.9604 112.589 77.395 113.073C77.8345 113.551 78.3911 113.791 79.0649 113.791C79.5435 113.791 79.9487 113.693 80.2808 113.498C80.6128 113.302 80.9033 113.043 81.1523 112.721L81.98 113.366C81.3159 114.386 80.3198 114.896 78.9917 114.896ZM78.8232 107.792C78.2764 107.792 77.8174 107.992 77.4463 108.393C77.0752 108.788 76.8457 109.345 76.7578 110.062H80.7275V109.96C80.6885 109.271 80.5029 108.739 80.1709 108.363C79.8389 107.982 79.3896 107.792 78.8232 107.792ZM87.4878 108.041C87.2827 108.007 87.0605 107.99 86.8213 107.99C85.9326 107.99 85.3296 108.368 85.0122 109.125V114.75H83.6572V106.825H84.9756L84.9976 107.741C85.4419 107.033 86.0718 106.679 86.8872 106.679C87.1509 106.679 87.3511 106.713 87.4878 106.781V108.041ZM96.2915 108.041C96.0864 108.007 95.8643 107.99 95.625 107.99C94.7363 107.99 94.1333 108.368 93.8159 109.125V114.75H92.4609V106.825H93.7793L93.8013 107.741C94.2456 107.033 94.8755 106.679 95.6909 106.679C95.9546 106.679 96.1548 106.713 96.2915 106.781V108.041ZM100.686 114.896C99.6118 114.896 98.7378 114.545 98.064 113.842C97.3901 113.134 97.0532 112.189 97.0532 111.007V110.758C97.0532 109.972 97.2021 109.271 97.5 108.656C97.8027 108.036 98.2227 107.553 98.7598 107.206C99.3018 106.854 99.8877 106.679 100.518 106.679C101.548 106.679 102.349 107.018 102.92 107.697C103.491 108.375 103.777 109.347 103.777 110.612V111.176H98.4082C98.4277 111.957 98.6548 112.589 99.0894 113.073C99.5288 113.551 100.085 113.791 100.759 113.791C101.238 113.791 101.643 113.693 101.975 113.498C102.307 113.302 102.598 113.043 102.847 112.721L103.674 113.366C103.01 114.386 102.014 114.896 100.686 114.896ZM100.518 107.792C99.9707 107.792 99.5117 107.992 99.1406 108.393C98.7695 108.788 98.54 109.345 98.4521 110.062H102.422V109.96C102.383 109.271 102.197 108.739 101.865 108.363C101.533 107.982 101.084 107.792 100.518 107.792ZM106.824 114.75H105.469V103.5H106.824V114.75ZM112.288 114.896C111.213 114.896 110.339 114.545 109.666 113.842C108.992 113.134 108.655 112.189 108.655 111.007V110.758C108.655 109.972 108.804 109.271 109.102 108.656C109.404 108.036 109.824 107.553 110.361 107.206C110.903 106.854 111.489 106.679 112.119 106.679C113.149 106.679 113.95 107.018 114.521 107.697C115.093 108.375 115.378 109.347 115.378 110.612V111.176H110.01C110.029 111.957 110.256 112.589 110.691 113.073C111.13 113.551 111.687 113.791 112.361 113.791C112.839 113.791 113.245 113.693 113.577 113.498C113.909 113.302 114.199 113.043 114.448 112.721L115.276 113.366C114.612 114.386 113.616 114.896 112.288 114.896ZM112.119 107.792C111.572 107.792 111.113 107.992 110.742 108.393C110.371 108.788 110.142 109.345 110.054 110.062H114.023V109.96C113.984 109.271 113.799 108.739 113.467 108.363C113.135 107.982 112.686 107.792 112.119 107.792ZM119.465 112.912L121.428 106.825H122.812L119.971 114.75H118.938L116.067 106.825H117.451L119.465 112.912ZM128.892 114.75C128.813 114.594 128.75 114.315 128.701 113.915C128.071 114.569 127.319 114.896 126.445 114.896C125.664 114.896 125.022 114.677 124.519 114.237C124.021 113.793 123.772 113.231 123.772 112.553C123.772 111.728 124.084 111.088 124.709 110.634C125.339 110.175 126.223 109.945 127.361 109.945H128.679V109.323C128.679 108.849 128.538 108.473 128.254 108.195C127.971 107.912 127.554 107.77 127.002 107.77C126.519 107.77 126.113 107.892 125.786 108.136C125.459 108.38 125.295 108.676 125.295 109.022H123.933C123.933 108.627 124.072 108.246 124.351 107.88C124.634 107.509 125.015 107.216 125.493 107.001C125.977 106.786 126.506 106.679 127.083 106.679C127.996 106.679 128.711 106.908 129.229 107.367C129.746 107.821 130.015 108.449 130.034 109.25V112.897C130.034 113.625 130.127 114.203 130.312 114.633V114.75H128.892ZM126.643 113.717C127.068 113.717 127.471 113.607 127.852 113.388C128.232 113.168 128.508 112.882 128.679 112.531V110.905H127.617C125.957 110.905 125.127 111.391 125.127 112.362C125.127 112.787 125.269 113.119 125.552 113.358C125.835 113.598 126.199 113.717 126.643 113.717ZM133.44 106.825L133.484 107.821C134.089 107.06 134.88 106.679 135.857 106.679C137.532 106.679 138.376 107.624 138.391 109.513V114.75H137.036V109.506C137.031 108.935 136.899 108.512 136.641 108.239C136.387 107.965 135.989 107.829 135.447 107.829C135.007 107.829 134.622 107.946 134.29 108.18C133.958 108.415 133.699 108.722 133.513 109.103V114.75H132.158V106.825H133.44ZM142.273 104.906V106.825H143.752V107.873H142.273V112.787C142.273 113.104 142.339 113.344 142.471 113.505C142.603 113.661 142.827 113.739 143.145 113.739C143.301 113.739 143.516 113.71 143.789 113.651V114.75C143.433 114.848 143.086 114.896 142.749 114.896C142.144 114.896 141.687 114.713 141.379 114.347C141.072 113.981 140.918 113.461 140.918 112.787V107.873H139.475V106.825H140.918V104.906H142.273ZM155.757 110.875C155.757 112.082 155.481 113.053 154.929 113.791C154.377 114.528 153.63 114.896 152.688 114.896C151.726 114.896 150.969 114.591 150.417 113.981V117.797H149.062V106.825H150.3L150.366 107.704C150.918 107.021 151.685 106.679 152.666 106.679C153.618 106.679 154.37 107.038 154.922 107.755C155.479 108.473 155.757 109.472 155.757 110.751V110.875ZM154.402 110.722C154.402 109.828 154.211 109.123 153.831 108.605C153.45 108.087 152.927 107.829 152.263 107.829C151.443 107.829 150.828 108.192 150.417 108.92V112.707C150.823 113.429 151.443 113.791 152.278 113.791C152.927 113.791 153.442 113.534 153.823 113.021C154.209 112.504 154.402 111.737 154.402 110.722ZM161.316 108.041C161.111 108.007 160.889 107.99 160.649 107.99C159.761 107.99 159.158 108.368 158.84 109.125V114.75H157.485V106.825H158.804L158.826 107.741C159.27 107.033 159.9 106.679 160.715 106.679C160.979 106.679 161.179 106.713 161.316 106.781V108.041ZM162.063 110.714C162.063 109.938 162.214 109.24 162.517 108.62C162.825 108 163.25 107.521 163.792 107.184C164.338 106.847 164.961 106.679 165.659 106.679C166.738 106.679 167.61 107.052 168.274 107.799C168.943 108.546 169.277 109.54 169.277 110.78V110.875C169.277 111.647 169.128 112.34 168.831 112.956C168.538 113.566 168.115 114.042 167.563 114.384C167.017 114.726 166.387 114.896 165.674 114.896C164.6 114.896 163.728 114.523 163.059 113.776C162.395 113.029 162.063 112.04 162.063 110.81V110.714ZM163.425 110.875C163.425 111.754 163.628 112.46 164.033 112.992C164.443 113.524 164.99 113.791 165.674 113.791C166.362 113.791 166.909 113.522 167.314 112.985C167.72 112.443 167.922 111.686 167.922 110.714C167.922 109.845 167.715 109.142 167.3 108.605C166.89 108.063 166.343 107.792 165.659 107.792C164.99 107.792 164.451 108.058 164.041 108.59C163.63 109.123 163.425 109.884 163.425 110.875ZM170.647 110.722C170.647 109.506 170.935 108.529 171.511 107.792C172.087 107.05 172.842 106.679 173.774 106.679C174.702 106.679 175.437 106.996 175.979 107.631V103.5H177.334V114.75H176.089L176.023 113.9C175.481 114.564 174.727 114.896 173.76 114.896C172.842 114.896 172.092 114.521 171.511 113.769C170.935 113.017 170.647 112.035 170.647 110.824V110.722ZM172.002 110.875C172.002 111.774 172.188 112.477 172.559 112.985C172.93 113.493 173.442 113.747 174.097 113.747C174.956 113.747 175.583 113.361 175.979 112.589V108.949C175.574 108.202 174.951 107.829 174.111 107.829C173.447 107.829 172.93 108.085 172.559 108.598C172.188 109.11 172.002 109.87 172.002 110.875ZM184.336 113.966C183.809 114.586 183.035 114.896 182.014 114.896C181.169 114.896 180.525 114.652 180.081 114.164C179.641 113.671 179.419 112.943 179.414 111.981V106.825H180.769V111.945C180.769 113.146 181.257 113.747 182.234 113.747C183.269 113.747 183.958 113.361 184.299 112.589V106.825H185.654V114.75H184.365L184.336 113.966ZM190.898 113.791C191.382 113.791 191.804 113.644 192.166 113.351C192.527 113.058 192.727 112.692 192.766 112.252H194.048C194.023 112.707 193.867 113.139 193.579 113.549C193.291 113.959 192.905 114.286 192.422 114.53C191.943 114.774 191.436 114.896 190.898 114.896C189.819 114.896 188.96 114.538 188.32 113.82C187.686 113.097 187.368 112.111 187.368 110.861V110.634C187.368 109.862 187.51 109.176 187.793 108.576C188.076 107.975 188.481 107.509 189.009 107.177C189.541 106.845 190.168 106.679 190.891 106.679C191.78 106.679 192.517 106.945 193.103 107.477C193.694 108.009 194.009 108.7 194.048 109.55H192.766C192.727 109.037 192.532 108.617 192.18 108.29C191.833 107.958 191.404 107.792 190.891 107.792C190.203 107.792 189.668 108.041 189.287 108.539C188.911 109.032 188.723 109.748 188.723 110.685V110.941C188.723 111.854 188.911 112.558 189.287 113.051C189.663 113.544 190.2 113.791 190.898 113.791ZM197.41 104.906V106.825H198.889V107.873H197.41V112.787C197.41 113.104 197.476 113.344 197.607 113.505C197.739 113.661 197.964 113.739 198.281 113.739C198.438 113.739 198.652 113.71 198.926 113.651V114.75C198.569 114.848 198.223 114.896 197.886 114.896C197.28 114.896 196.824 114.713 196.516 114.347C196.208 113.981 196.055 113.461 196.055 112.787V107.873H194.612V106.825H196.055V104.906H197.41ZM205.093 112.648C205.093 112.282 204.954 111.999 204.675 111.798C204.402 111.593 203.921 111.417 203.232 111.271C202.549 111.125 202.004 110.949 201.599 110.744C201.199 110.539 200.901 110.294 200.706 110.011C200.515 109.728 200.42 109.391 200.42 109C200.42 108.351 200.693 107.802 201.24 107.353C201.792 106.903 202.495 106.679 203.35 106.679C204.248 106.679 204.976 106.911 205.532 107.375C206.094 107.838 206.375 108.432 206.375 109.154H205.012C205.012 108.783 204.854 108.463 204.536 108.195C204.224 107.926 203.828 107.792 203.35 107.792C202.856 107.792 202.471 107.899 202.192 108.114C201.914 108.329 201.775 108.61 201.775 108.957C201.775 109.284 201.904 109.53 202.163 109.696C202.422 109.862 202.888 110.021 203.562 110.172C204.241 110.324 204.79 110.504 205.21 110.714C205.63 110.924 205.94 111.178 206.14 111.476C206.345 111.769 206.448 112.128 206.448 112.553C206.448 113.261 206.165 113.83 205.598 114.259C205.032 114.684 204.297 114.896 203.394 114.896C202.759 114.896 202.197 114.784 201.709 114.56C201.221 114.335 200.837 114.022 200.559 113.622C200.286 113.217 200.149 112.78 200.149 112.311H201.504C201.528 112.765 201.709 113.126 202.046 113.395C202.388 113.659 202.837 113.791 203.394 113.791C203.906 113.791 204.316 113.688 204.624 113.483C204.937 113.273 205.093 112.995 205.093 112.648ZM208.242 114.04C208.242 113.805 208.311 113.61 208.447 113.454C208.589 113.297 208.799 113.219 209.077 113.219C209.355 113.219 209.565 113.297 209.707 113.454C209.854 113.61 209.927 113.805 209.927 114.04C209.927 114.264 209.854 114.452 209.707 114.604C209.565 114.755 209.355 114.831 209.077 114.831C208.799 114.831 208.589 114.755 208.447 114.604C208.311 114.452 208.242 114.264 208.242 114.04ZM217.507 110.575V114.75H216.101V104.086H220.034C221.201 104.086 222.114 104.384 222.773 104.979C223.438 105.575 223.77 106.364 223.77 107.345C223.77 108.38 223.445 109.179 222.795 109.74C222.151 110.297 221.226 110.575 220.02 110.575H217.507ZM217.507 109.425H220.034C220.786 109.425 221.362 109.25 221.763 108.898C222.163 108.542 222.363 108.029 222.363 107.36C222.363 106.725 222.163 106.217 221.763 105.836C221.362 105.456 220.813 105.258 220.115 105.243H217.507V109.425ZM230.244 113.966C229.717 114.586 228.943 114.896 227.922 114.896C227.078 114.896 226.433 114.652 225.989 114.164C225.549 113.671 225.327 112.943 225.322 111.981V106.825H226.677V111.945C226.677 113.146 227.166 113.747 228.142 113.747C229.177 113.747 229.866 113.361 230.208 112.589V106.825H231.562V114.75H230.273L230.244 113.966ZM238.242 112.648C238.242 112.282 238.103 111.999 237.825 111.798C237.551 111.593 237.07 111.417 236.382 111.271C235.698 111.125 235.154 110.949 234.749 110.744C234.348 110.539 234.05 110.294 233.855 110.011C233.665 109.728 233.569 109.391 233.569 109C233.569 108.351 233.843 107.802 234.39 107.353C234.941 106.903 235.645 106.679 236.499 106.679C237.397 106.679 238.125 106.911 238.682 107.375C239.243 107.838 239.524 108.432 239.524 109.154H238.162C238.162 108.783 238.003 108.463 237.686 108.195C237.373 107.926 236.978 107.792 236.499 107.792C236.006 107.792 235.62 107.899 235.342 108.114C235.063 108.329 234.924 108.61 234.924 108.957C234.924 109.284 235.054 109.53 235.312 109.696C235.571 109.862 236.038 110.021 236.711 110.172C237.39 110.324 237.939 110.504 238.359 110.714C238.779 110.924 239.089 111.178 239.29 111.476C239.495 111.769 239.597 112.128 239.597 112.553C239.597 113.261 239.314 113.83 238.748 114.259C238.181 114.684 237.446 114.896 236.543 114.896C235.908 114.896 235.347 114.784 234.858 114.56C234.37 114.335 233.987 114.022 233.708 113.622C233.435 113.217 233.298 112.78 233.298 112.311H234.653C234.678 112.765 234.858 113.126 235.195 113.395C235.537 113.659 235.986 113.791 236.543 113.791C237.056 113.791 237.466 113.688 237.773 113.483C238.086 113.273 238.242 112.995 238.242 112.648ZM242.717 107.785C243.318 107.047 244.099 106.679 245.061 106.679C246.736 106.679 247.581 107.624 247.595 109.513V114.75H246.24V109.506C246.235 108.935 246.104 108.512 245.845 108.239C245.591 107.965 245.193 107.829 244.651 107.829C244.211 107.829 243.826 107.946 243.494 108.18C243.162 108.415 242.903 108.722 242.717 109.103V114.75H241.362V103.5H242.717V107.785ZM257.959 112.648C257.959 112.282 257.82 111.999 257.542 111.798C257.268 111.593 256.787 111.417 256.099 111.271C255.415 111.125 254.871 110.949 254.465 110.744C254.065 110.539 253.767 110.294 253.572 110.011C253.381 109.728 253.286 109.391 253.286 109C253.286 108.351 253.56 107.802 254.106 107.353C254.658 106.903 255.361 106.679 256.216 106.679C257.114 106.679 257.842 106.911 258.398 107.375C258.96 107.838 259.241 108.432 259.241 109.154H257.878C257.878 108.783 257.72 108.463 257.402 108.195C257.09 107.926 256.694 107.792 256.216 107.792C255.723 107.792 255.337 107.899 255.059 108.114C254.78 108.329 254.641 108.61 254.641 108.957C254.641 109.284 254.771 109.53 255.029 109.696C255.288 109.862 255.754 110.021 256.428 110.172C257.107 110.324 257.656 110.504 258.076 110.714C258.496 110.924 258.806 111.178 259.006 111.476C259.211 111.769 259.314 112.128 259.314 112.553C259.314 113.261 259.031 113.83 258.464 114.259C257.898 114.684 257.163 114.896 256.26 114.896C255.625 114.896 255.063 114.784 254.575 114.56C254.087 114.335 253.704 114.022 253.425 113.622C253.152 113.217 253.015 112.78 253.015 112.311H254.37C254.395 112.765 254.575 113.126 254.912 113.395C255.254 113.659 255.703 113.791 256.26 113.791C256.772 113.791 257.183 113.688 257.49 113.483C257.803 113.273 257.959 112.995 257.959 112.648ZM265.972 114.75C265.894 114.594 265.83 114.315 265.781 113.915C265.151 114.569 264.399 114.896 263.525 114.896C262.744 114.896 262.102 114.677 261.599 114.237C261.101 113.793 260.852 113.231 260.852 112.553C260.852 111.728 261.165 111.088 261.79 110.634C262.419 110.175 263.303 109.945 264.441 109.945H265.759V109.323C265.759 108.849 265.618 108.473 265.334 108.195C265.051 107.912 264.634 107.77 264.082 107.77C263.599 107.77 263.193 107.892 262.866 108.136C262.539 108.38 262.375 108.676 262.375 109.022H261.013C261.013 108.627 261.152 108.246 261.431 107.88C261.714 107.509 262.095 107.216 262.573 107.001C263.057 106.786 263.586 106.679 264.163 106.679C265.076 106.679 265.791 106.908 266.309 107.367C266.826 107.821 267.095 108.449 267.114 109.25V112.897C267.114 113.625 267.207 114.203 267.393 114.633V114.75H265.972ZM263.723 113.717C264.148 113.717 264.551 113.607 264.932 113.388C265.312 113.168 265.588 112.882 265.759 112.531V110.905H264.697C263.037 110.905 262.207 111.391 262.207 112.362C262.207 112.787 262.349 113.119 262.632 113.358C262.915 113.598 263.279 113.717 263.723 113.717ZM270.513 106.825L270.549 107.704C271.13 107.021 271.914 106.679 272.9 106.679C274.009 106.679 274.763 107.104 275.164 107.953C275.427 107.572 275.769 107.265 276.189 107.03C276.614 106.796 277.114 106.679 277.69 106.679C279.429 106.679 280.312 107.599 280.342 109.44V114.75H278.987V109.521C278.987 108.954 278.857 108.532 278.599 108.253C278.34 107.97 277.905 107.829 277.295 107.829C276.792 107.829 276.375 107.98 276.042 108.283C275.71 108.581 275.518 108.983 275.464 109.491V114.75H274.102V109.557C274.102 108.405 273.538 107.829 272.41 107.829C271.521 107.829 270.913 108.207 270.586 108.964V114.75H269.231V106.825H270.513ZM289.087 110.875C289.087 112.082 288.811 113.053 288.259 113.791C287.708 114.528 286.96 114.896 286.018 114.896C285.056 114.896 284.299 114.591 283.748 113.981V117.797H282.393V106.825H283.63L283.696 107.704C284.248 107.021 285.015 106.679 285.996 106.679C286.948 106.679 287.7 107.038 288.252 107.755C288.809 108.473 289.087 109.472 289.087 110.751V110.875ZM287.732 110.722C287.732 109.828 287.542 109.123 287.161 108.605C286.78 108.087 286.257 107.829 285.593 107.829C284.773 107.829 284.158 108.192 283.748 108.92V112.707C284.153 113.429 284.773 113.791 285.608 113.791C286.257 113.791 286.772 113.534 287.153 113.021C287.539 112.504 287.732 111.737 287.732 110.722ZM292.288 114.75H290.933V103.5H292.288V114.75ZM297.751 114.896C296.677 114.896 295.803 114.545 295.129 113.842C294.456 113.134 294.119 112.189 294.119 111.007V110.758C294.119 109.972 294.268 109.271 294.565 108.656C294.868 108.036 295.288 107.553 295.825 107.206C296.367 106.854 296.953 106.679 297.583 106.679C298.613 106.679 299.414 107.018 299.985 107.697C300.557 108.375 300.842 109.347 300.842 110.612V111.176H295.474C295.493 111.957 295.72 112.589 296.155 113.073C296.594 113.551 297.151 113.791 297.825 113.791C298.303 113.791 298.708 113.693 299.041 113.498C299.373 113.302 299.663 113.043 299.912 112.721L300.74 113.366C300.076 114.386 299.08 114.896 297.751 114.896ZM297.583 107.792C297.036 107.792 296.577 107.992 296.206 108.393C295.835 108.788 295.605 109.345 295.518 110.062H299.487V109.96C299.448 109.271 299.263 108.739 298.931 108.363C298.599 107.982 298.149 107.792 297.583 107.792ZM307.031 112.648C307.031 112.282 306.892 111.999 306.614 111.798C306.34 111.593 305.859 111.417 305.171 111.271C304.487 111.125 303.943 110.949 303.538 110.744C303.137 110.539 302.839 110.294 302.644 110.011C302.454 109.728 302.358 109.391 302.358 109C302.358 108.351 302.632 107.802 303.179 107.353C303.73 106.903 304.434 106.679 305.288 106.679C306.187 106.679 306.914 106.911 307.471 107.375C308.032 107.838 308.313 108.432 308.313 109.154H306.951C306.951 108.783 306.792 108.463 306.475 108.195C306.162 107.926 305.767 107.792 305.288 107.792C304.795 107.792 304.409 107.899 304.131 108.114C303.853 108.329 303.713 108.61 303.713 108.957C303.713 109.284 303.843 109.53 304.102 109.696C304.36 109.862 304.827 110.021 305.5 110.172C306.179 110.324 306.729 110.504 307.148 110.714C307.568 110.924 307.878 111.178 308.079 111.476C308.284 111.769 308.386 112.128 308.386 112.553C308.386 113.261 308.103 113.83 307.537 114.259C306.97 114.684 306.235 114.896 305.332 114.896C304.697 114.896 304.136 114.784 303.647 114.56C303.159 114.335 302.776 114.022 302.498 113.622C302.224 113.217 302.087 112.78 302.087 112.311H303.442C303.467 112.765 303.647 113.126 303.984 113.395C304.326 113.659 304.775 113.791 305.332 113.791C305.845 113.791 306.255 113.688 306.562 113.483C306.875 113.273 307.031 112.995 307.031 112.648ZM310.181 114.04C310.181 113.805 310.249 113.61 310.386 113.454C310.527 113.297 310.737 113.219 311.016 113.219C311.294 113.219 311.504 113.297 311.646 113.454C311.792 113.61 311.865 113.805 311.865 114.04C311.865 114.264 311.792 114.452 311.646 114.604C311.504 114.755 311.294 114.831 311.016 114.831C310.737 114.831 310.527 114.755 310.386 114.604C310.249 114.452 310.181 114.264 310.181 114.04ZM325.547 104.086V111.337C325.542 112.343 325.225 113.166 324.595 113.805C323.97 114.445 323.12 114.804 322.046 114.882L321.672 114.896C320.505 114.896 319.575 114.582 318.882 113.952C318.188 113.322 317.837 112.455 317.827 111.352V104.086H319.219V111.308C319.219 112.079 319.431 112.68 319.856 113.109C320.281 113.534 320.886 113.747 321.672 113.747C322.468 113.747 323.076 113.534 323.496 113.109C323.921 112.685 324.133 112.086 324.133 111.315V104.086H325.547ZM334.248 110.875C334.248 112.082 333.972 113.053 333.42 113.791C332.869 114.528 332.122 114.896 331.179 114.896C330.217 114.896 329.46 114.591 328.909 113.981V117.797H327.554V106.825H328.792L328.857 107.704C329.409 107.021 330.176 106.679 331.157 106.679C332.109 106.679 332.861 107.038 333.413 107.755C333.97 108.473 334.248 109.472 334.248 110.751V110.875ZM332.893 110.722C332.893 109.828 332.703 109.123 332.322 108.605C331.941 108.087 331.418 107.829 330.754 107.829C329.934 107.829 329.319 108.192 328.909 108.92V112.707C329.314 113.429 329.934 113.791 330.769 113.791C331.418 113.791 331.934 113.534 332.314 113.021C332.7 112.504 332.893 111.737 332.893 110.722ZM340.591 112.648C340.591 112.282 340.452 111.999 340.173 111.798C339.9 111.593 339.419 111.417 338.73 111.271C338.047 111.125 337.502 110.949 337.097 110.744C336.697 110.539 336.399 110.294 336.204 110.011C336.013 109.728 335.918 109.391 335.918 109C335.918 108.351 336.191 107.802 336.738 107.353C337.29 106.903 337.993 106.679 338.848 106.679C339.746 106.679 340.474 106.911 341.03 107.375C341.592 107.838 341.873 108.432 341.873 109.154H340.51C340.51 108.783 340.352 108.463 340.034 108.195C339.722 107.926 339.326 107.792 338.848 107.792C338.354 107.792 337.969 107.899 337.69 108.114C337.412 108.329 337.273 108.61 337.273 108.957C337.273 109.284 337.402 109.53 337.661 109.696C337.92 109.862 338.386 110.021 339.06 110.172C339.739 110.324 340.288 110.504 340.708 110.714C341.128 110.924 341.438 111.178 341.638 111.476C341.843 111.769 341.946 112.128 341.946 112.553C341.946 113.261 341.663 113.83 341.096 114.259C340.53 114.684 339.795 114.896 338.892 114.896C338.257 114.896 337.695 114.784 337.207 114.56C336.719 114.335 336.335 114.022 336.057 113.622C335.784 113.217 335.647 112.78 335.647 112.311H337.002C337.026 112.765 337.207 113.126 337.544 113.395C337.886 113.659 338.335 113.791 338.892 113.791C339.404 113.791 339.814 113.688 340.122 113.483C340.435 113.273 340.591 112.995 340.591 112.648ZM347 114.896C345.925 114.896 345.051 114.545 344.377 113.842C343.704 113.134 343.367 112.189 343.367 111.007V110.758C343.367 109.972 343.516 109.271 343.813 108.656C344.116 108.036 344.536 107.553 345.073 107.206C345.615 106.854 346.201 106.679 346.831 106.679C347.861 106.679 348.662 107.018 349.233 107.697C349.805 108.375 350.09 109.347 350.09 110.612V111.176H344.722C344.741 111.957 344.968 112.589 345.403 113.073C345.842 113.551 346.399 113.791 347.073 113.791C347.551 113.791 347.957 113.693 348.289 113.498C348.621 113.302 348.911 113.043 349.16 112.721L349.988 113.366C349.324 114.386 348.328 114.896 347 114.896ZM346.831 107.792C346.284 107.792 345.825 107.992 345.454 108.393C345.083 108.788 344.854 109.345 344.766 110.062H348.735V109.96C348.696 109.271 348.511 108.739 348.179 108.363C347.847 107.982 347.397 107.792 346.831 107.792ZM353.137 114.75H351.782V103.5H353.137V114.75ZM356.785 114.75H355.43V103.5H356.785V114.75ZM367.573 114.75C367.495 114.594 367.432 114.315 367.383 113.915C366.753 114.569 366.001 114.896 365.127 114.896C364.346 114.896 363.704 114.677 363.201 114.237C362.703 113.793 362.454 113.231 362.454 112.553C362.454 111.728 362.766 111.088 363.391 110.634C364.021 110.175 364.905 109.945 366.042 109.945H367.361V109.323C367.361 108.849 367.219 108.473 366.936 108.195C366.653 107.912 366.235 107.77 365.684 107.77C365.2 107.77 364.795 107.892 364.468 108.136C364.141 108.38 363.977 108.676 363.977 109.022H362.615C362.615 108.627 362.754 108.246 363.032 107.88C363.315 107.509 363.696 107.216 364.175 107.001C364.658 106.786 365.188 106.679 365.764 106.679C366.677 106.679 367.393 106.908 367.91 107.367C368.428 107.821 368.696 108.449 368.716 109.25V112.897C368.716 113.625 368.809 114.203 368.994 114.633V114.75H367.573ZM365.325 113.717C365.75 113.717 366.152 113.607 366.533 113.388C366.914 113.168 367.19 112.882 367.361 112.531V110.905H366.299C364.639 110.905 363.809 111.391 363.809 112.362C363.809 112.787 363.95 113.119 364.233 113.358C364.517 113.598 364.88 113.717 365.325 113.717ZM372.122 106.825L372.166 107.821C372.771 107.06 373.562 106.679 374.539 106.679C376.213 106.679 377.058 107.624 377.073 109.513V114.75H375.718V109.506C375.713 108.935 375.581 108.512 375.322 108.239C375.068 107.965 374.67 107.829 374.128 107.829C373.689 107.829 373.303 107.946 372.971 108.18C372.639 108.415 372.38 108.722 372.195 109.103V114.75H370.84V106.825H372.122ZM378.787 110.722C378.787 109.506 379.075 108.529 379.651 107.792C380.227 107.05 380.981 106.679 381.914 106.679C382.842 106.679 383.577 106.996 384.119 107.631V103.5H385.474V114.75H384.229L384.163 113.9C383.621 114.564 382.866 114.896 381.899 114.896C380.981 114.896 380.232 114.521 379.651 113.769C379.075 113.017 378.787 112.035 378.787 110.824V110.722ZM380.142 110.875C380.142 111.774 380.327 112.477 380.698 112.985C381.069 113.493 381.582 113.747 382.236 113.747C383.096 113.747 383.723 113.361 384.119 112.589V108.949C383.713 108.202 383.091 107.829 382.251 107.829C381.587 107.829 381.069 108.085 380.698 108.598C380.327 109.11 380.142 109.87 380.142 110.875ZM34.856 130.041C34.6509 130.007 34.4287 129.99 34.1895 129.99C33.3008 129.99 32.6978 130.368 32.3804 131.125V136.75H31.0254V128.825H32.3438L32.3657 129.741C32.8101 129.033 33.4399 128.679 34.2554 128.679C34.519 128.679 34.7192 128.713 34.856 128.781V130.041ZM39.2505 136.896C38.1763 136.896 37.3022 136.545 36.6284 135.842C35.9546 135.134 35.6177 134.189 35.6177 133.007V132.758C35.6177 131.972 35.7666 131.271 36.0645 130.656C36.3672 130.036 36.7871 129.553 37.3242 129.206C37.8662 128.854 38.4521 128.679 39.082 128.679C40.1123 128.679 40.9131 129.018 41.4844 129.697C42.0557 130.375 42.3413 131.347 42.3413 132.612V133.176H36.9727C36.9922 133.957 37.2192 134.589 37.6538 135.073C38.0933 135.551 38.6499 135.791 39.3237 135.791C39.8022 135.791 40.2075 135.693 40.5396 135.498C40.8716 135.302 41.1621 135.043 41.4111 134.721L42.2388 135.366C41.5747 136.386 40.5786 136.896 39.2505 136.896ZM39.082 129.792C38.5352 129.792 38.0762 129.992 37.7051 130.393C37.334 130.788 37.1045 131.345 37.0166 132.062H40.9863V131.96C40.9473 131.271 40.7617 130.739 40.4297 130.363C40.0977 129.982 39.6484 129.792 39.082 129.792ZM50.6104 132.875C50.6104 134.082 50.3345 135.053 49.7827 135.791C49.231 136.528 48.4839 136.896 47.5415 136.896C46.5796 136.896 45.8228 136.591 45.271 135.981V139.797H43.916V128.825H45.1538L45.2197 129.704C45.7715 129.021 46.5381 128.679 47.5195 128.679C48.4717 128.679 49.2236 129.038 49.7754 129.755C50.332 130.473 50.6104 131.472 50.6104 132.751V132.875ZM49.2554 132.722C49.2554 131.828 49.0649 131.123 48.6841 130.605C48.3032 130.087 47.7808 129.829 47.1167 129.829C46.2964 129.829 45.6812 130.192 45.271 130.92V134.707C45.6763 135.429 46.2964 135.791 47.1313 135.791C47.7808 135.791 48.2959 135.534 48.6768 135.021C49.0625 134.504 49.2554 133.737 49.2554 132.722ZM53.811 136.75H52.4561V125.5H53.811V136.75ZM59.2749 136.896C58.2007 136.896 57.3267 136.545 56.6528 135.842C55.979 135.134 55.6421 134.189 55.6421 133.007V132.758C55.6421 131.972 55.791 131.271 56.0889 130.656C56.3916 130.036 56.8115 129.553 57.3486 129.206C57.8906 128.854 58.4766 128.679 59.1064 128.679C60.1367 128.679 60.9375 129.018 61.5088 129.697C62.0801 130.375 62.3657 131.347 62.3657 132.612V133.176H56.9971C57.0166 133.957 57.2437 134.589 57.6782 135.073C58.1177 135.551 58.6743 135.791 59.3481 135.791C59.8267 135.791 60.2319 135.693 60.564 135.498C60.896 135.302 61.1865 135.043 61.4355 134.721L62.2632 135.366C61.5991 136.386 60.603 136.896 59.2749 136.896ZM59.1064 129.792C58.5596 129.792 58.1006 129.992 57.7295 130.393C57.3584 130.788 57.1289 131.345 57.041 132.062H61.0107V131.96C60.9717 131.271 60.7861 130.739 60.4541 130.363C60.1221 129.982 59.6729 129.792 59.1064 129.792ZM65.2222 128.825L65.2661 129.821C65.8716 129.06 66.6626 128.679 67.6392 128.679C69.314 128.679 70.1587 129.624 70.1733 131.513V136.75H68.8184V131.506C68.8135 130.935 68.6816 130.512 68.4229 130.239C68.1689 129.965 67.771 129.829 67.229 129.829C66.7896 129.829 66.4038 129.946 66.0718 130.18C65.7397 130.415 65.481 130.722 65.2954 131.103V136.75H63.9404V128.825H65.2222ZM73.689 136.75H72.334V128.825H73.689V136.75ZM72.2241 126.723C72.2241 126.503 72.29 126.318 72.4219 126.167C72.5586 126.015 72.7588 125.939 73.0225 125.939C73.2861 125.939 73.4863 126.015 73.623 126.167C73.7598 126.318 73.8281 126.503 73.8281 126.723C73.8281 126.943 73.7598 127.126 73.623 127.272C73.4863 127.419 73.2861 127.492 73.0225 127.492C72.7588 127.492 72.5586 127.419 72.4219 127.272C72.29 127.126 72.2241 126.943 72.2241 126.723ZM80.4785 134.648C80.4785 134.282 80.3394 133.999 80.061 133.798C79.7876 133.593 79.3066 133.417 78.6182 133.271C77.9346 133.125 77.3901 132.949 76.9849 132.744C76.5845 132.539 76.2866 132.294 76.0913 132.011C75.9009 131.728 75.8057 131.391 75.8057 131C75.8057 130.351 76.0791 129.802 76.626 129.353C77.1777 128.903 77.8809 128.679 78.7354 128.679C79.6338 128.679 80.3613 128.911 80.918 129.375C81.4795 129.838 81.7603 130.432 81.7603 131.154H80.3979C80.3979 130.783 80.2393 130.463 79.9219 130.195C79.6094 129.926 79.2139 129.792 78.7354 129.792C78.2422 129.792 77.8564 129.899 77.5781 130.114C77.2998 130.329 77.1606 130.61 77.1606 130.957C77.1606 131.284 77.29 131.53 77.5488 131.696C77.8076 131.862 78.2739 132.021 78.9478 132.172C79.6265 132.324 80.1758 132.504 80.5957 132.714C81.0156 132.924 81.3257 133.178 81.5259 133.476C81.731 133.769 81.8335 134.128 81.8335 134.553C81.8335 135.261 81.5503 135.83 80.9839 136.259C80.4175 136.684 79.6826 136.896 78.7793 136.896C78.1445 136.896 77.583 136.784 77.0947 136.56C76.6064 136.335 76.2231 136.022 75.9448 135.622C75.6714 135.217 75.5347 134.78 75.5347 134.311H76.8896C76.9141 134.765 77.0947 135.126 77.4316 135.395C77.7734 135.659 78.2227 135.791 78.7793 135.791C79.292 135.791 79.7021 135.688 80.0098 135.483C80.3223 135.273 80.4785 134.995 80.4785 134.648ZM84.9536 129.785C85.5542 129.047 86.3354 128.679 87.2974 128.679C88.9722 128.679 89.8169 129.624 89.8315 131.513V136.75H88.4766V131.506C88.4717 130.935 88.3398 130.512 88.0811 130.239C87.8271 129.965 87.4292 129.829 86.8872 129.829C86.4478 129.829 86.062 129.946 85.73 130.18C85.3979 130.415 85.1392 130.722 84.9536 131.103V136.75H83.5986V125.5H84.9536V129.785ZM91.8896 136.04C91.8896 135.805 91.958 135.61 92.0947 135.454C92.2363 135.297 92.4463 135.219 92.7246 135.219C93.0029 135.219 93.2129 135.297 93.3545 135.454C93.501 135.61 93.5742 135.805 93.5742 136.04C93.5742 136.264 93.501 136.452 93.3545 136.604C93.2129 136.755 93.0029 136.831 92.7246 136.831C92.4463 136.831 92.2363 136.755 92.0947 136.604C91.958 136.452 91.8896 136.264 91.8896 136.04Z" fill="white"/>
</svg>
