<svg width="50" height="51" viewBox="0 0 50 51" fill="none" xmlns="http://www.w3.org/2000/svg">
<path d="M32.4 24.89L36.16 21.12L26.08 11.04C25.9387 10.8973 25.7705 10.784 25.5851 10.7067C25.3997 10.6294 25.2008 10.5896 25 10.5896C24.7991 10.5896 24.6003 10.6294 24.4149 10.7067C24.2295 10.784 24.0613 10.8973 23.92 11.04L13.84 21.12L17.6 24.89C17.7137 25.0025 17.8039 25.1365 17.8655 25.2841C17.9271 25.4317 17.9588 25.5901 17.9588 25.75C17.9588 25.91 17.9271 26.0683 17.8655 26.2159C17.8039 26.3636 17.7137 26.4975 17.6 26.61L13.84 30.38L23.92 40.46C24.0613 40.6027 24.2295 40.716 24.4149 40.7933C24.6003 40.8706 24.7991 40.9104 25 40.9104C25.2008 40.9104 25.3997 40.8706 25.5851 40.7933C25.7705 40.716 25.9387 40.6027 26.08 40.46L36.16 30.38L32.4 26.61C32.2863 26.4975 32.1961 26.3636 32.1345 26.2159C32.0729 26.0683 32.0412 25.91 32.0412 25.75C32.0412 25.5901 32.0729 25.4317 32.1345 25.2841C32.1961 25.1365 32.2863 25.0025 32.4 24.89Z" fill="#6F00FF"/>
<path d="M47.82 24.89L41 18.04C40.8875 17.9263 40.7535 17.836 40.6059 17.7745C40.4583 17.7129 40.3 17.6812 40.14 17.6812C39.9801 17.6812 39.8217 17.7129 39.6741 17.7745C39.5265 17.836 39.3925 17.9263 39.28 18.04L36.19 21.12L39.74 24.67C39.8827 24.8113 39.996 24.9795 40.0733 25.1649C40.1506 25.3503 40.1904 25.5491 40.1904 25.75C40.1904 25.9508 40.1506 26.1497 40.0733 26.3351C39.996 26.5204 39.8827 26.6886 39.74 26.83L36.19 30.38L39.28 33.46C39.3925 33.5737 39.5265 33.6639 39.6741 33.7255C39.8217 33.7871 39.9801 33.8188 40.14 33.8188C40.3 33.8188 40.4583 33.7871 40.6059 33.7255C40.7535 33.6639 40.8875 33.5737 41 33.46L47.85 26.61C48.0708 26.3762 48.1913 26.0653 48.1857 25.7439C48.1801 25.4224 48.0488 25.1159 47.82 24.89Z" fill="#D15187"/>
<path d="M39.71 24.67L36.16 21.12L32.4 24.89C32.2863 25.0025 32.1961 25.1365 32.1345 25.2841C32.0729 25.4317 32.0412 25.59 32.0412 25.75C32.0412 25.9099 32.0729 26.0683 32.1345 26.2159C32.1961 26.3635 32.2863 26.4975 32.4 26.61L36.16 30.38L39.71 26.83C39.8527 26.6887 39.966 26.5204 40.0433 26.3351C40.1206 26.1497 40.1604 25.9508 40.1604 25.75C40.1604 25.5491 40.1206 25.3503 40.0433 25.1649C39.966 24.9795 39.8527 24.8113 39.71 24.67Z" fill="#A445BB"/>
<path d="M10.29 24.67L13.84 21.12L10.75 18.04C10.6375 17.9263 10.5035 17.836 10.3559 17.7745C10.2083 17.7129 10.05 17.6812 9.89 17.6812C9.73005 17.6812 9.57169 17.7129 9.42407 17.7745C9.27646 17.836 9.14252 17.9263 9.03 18.04L2.18 24.89C1.95523 25.1198 1.82938 25.4285 1.82938 25.75C1.82938 26.0714 1.95523 26.3801 2.18 26.61L9 33.46C9.11252 33.5737 9.24646 33.6639 9.39407 33.7255C9.54169 33.7871 9.70005 33.8188 9.86 33.8188C10.0199 33.8188 10.1783 33.7871 10.3259 33.7255C10.4735 33.6639 10.6075 33.5737 10.72 33.46L13.81 30.38L10.26 26.83C10.1192 26.6867 10.0083 26.5169 9.93353 26.3304C9.85878 26.144 9.82173 25.9446 9.82452 25.7437C9.82731 25.5429 9.86988 25.3446 9.94978 25.1603C10.0297 24.976 10.1453 24.8093 10.29 24.67Z" fill="#D15187"/>
<path d="M17.6 24.89L13.84 21.12L10.29 24.67C10.1473 24.8113 10.034 24.9795 9.95669 25.1649C9.87937 25.3503 9.83957 25.5491 9.83957 25.75C9.83957 25.9508 9.87937 26.1497 9.95669 26.3351C10.034 26.5204 10.1473 26.6887 10.29 26.83L13.84 30.38L17.6 26.61C17.7137 26.4975 17.8039 26.3635 17.8655 26.2159C17.9271 26.0683 17.9588 25.9099 17.9588 25.75C17.9588 25.59 17.9271 25.4317 17.8655 25.2841C17.8039 25.1365 17.7137 25.0025 17.6 24.89Z" fill="#A445BB"/>
</svg>
