<svg width="50" height="51" viewBox="0 0 50 51" fill="none" xmlns="http://www.w3.org/2000/svg">
<path d="M26.23 14.5799L41.37 22.5799L43 21.7499C43.4225 21.5248 43.7758 21.1891 44.0222 20.7787C44.2686 20.3683 44.3987 19.8986 44.3987 19.4199C44.3987 18.9412 44.2686 18.4715 44.0222 18.0611C43.7758 17.6507 43.4225 17.315 43 17.0899L26.23 8.25991C25.85 8.06267 25.4281 7.95972 25 7.95972C24.5719 7.95972 24.15 8.06267 23.77 8.25991L7.05 17.0999C6.62751 17.325 6.27417 17.6607 6.02779 18.0711C5.7814 18.4815 5.65125 18.9512 5.65125 19.4299C5.65125 19.9086 5.7814 20.3783 6.02779 20.7887C6.27417 21.1991 6.62751 21.5348 7.05 21.7599L8.63 22.5899L23.77 14.5899C24.1492 14.3911 24.5706 14.2865 24.9988 14.2847C25.4269 14.283 25.8492 14.3842 26.23 14.5799Z" fill="#6F2CFF"/>
<path d="M23.77 36.9199L8.63 28.9199L7.05 29.7499C6.62751 29.975 6.27417 30.3107 6.02779 30.7211C5.7814 31.1315 5.65125 31.6012 5.65125 32.0799C5.65125 32.5586 5.7814 33.0283 6.02779 33.4387C6.27417 33.8491 6.62751 34.1849 7.05 34.4099L23.77 43.2499C24.15 43.4472 24.5719 43.5501 25 43.5501C25.4281 43.5501 25.85 43.4472 26.23 43.2499L43 34.3999C43.42 34.174 43.771 33.8386 44.0156 33.4292C44.2602 33.0198 44.3894 32.5518 44.3894 32.0749C44.3894 31.598 44.2602 31.13 44.0156 30.7207C43.771 30.3113 43.42 29.9758 43 29.7499L41.42 28.9199L26.28 36.9199C25.8937 37.1257 25.4627 37.2333 25.025 37.2333C24.5873 37.2333 24.1563 37.1257 23.77 36.9199Z" fill="#6F2CFF"/>
<path d="M43 23.4201L41.42 22.5901L35.42 25.7501L26.26 30.5901C25.8815 30.7923 25.4591 30.8981 25.03 30.8981C24.6009 30.8981 24.1784 30.7923 23.8 30.5901L14.61 25.7501L8.60998 22.5901L7.02998 23.4201C6.60749 23.6452 6.25415 23.9809 6.00777 24.3913C5.76138 24.8017 5.63123 25.2714 5.63123 25.7501C5.63123 26.2288 5.76138 26.6985 6.00777 27.1089C6.25415 27.5193 6.60749 27.855 7.02998 28.0801L8.60998 28.9101L23.75 36.9101C24.13 37.1073 24.5518 37.2103 24.98 37.2103C25.4081 37.2103 25.83 37.1073 26.21 36.9101L41.35 28.9101L43 28.0801C43.4225 27.855 43.7758 27.5193 44.0222 27.1089C44.2686 26.6985 44.3987 26.2288 44.3987 25.7501C44.3987 25.2714 44.2686 24.8017 44.0222 24.3913C43.7758 23.9809 43.4225 23.6452 43 23.4201Z" fill="#D15187"/>
<path d="M26.23 14.58C25.85 14.3827 25.4281 14.2798 25 14.2798C24.5719 14.2798 24.15 14.3827 23.77 14.58L8.63 22.58L14.63 25.74L23.79 30.58C24.1685 30.7822 24.5909 30.888 25.02 30.888C25.4491 30.888 25.8716 30.7822 26.25 30.58L35.39 25.75L41.39 22.59L26.23 14.58Z" fill="#A445BB"/>
</svg>
