<svg width="50" height="51" viewBox="0 0 50 51" fill="none" xmlns="http://www.w3.org/2000/svg">
<path d="M37.12 11.6399H12.88C11.781 11.6399 10.89 12.5308 10.89 13.6299V37.8699C10.89 38.9689 11.781 39.8599 12.88 39.8599H37.12C38.2191 39.8599 39.11 38.9689 39.11 37.8699V13.6299C39.11 12.5308 38.2191 11.6399 37.12 11.6399Z" fill="#6F2CFF"/>
<path d="M39.11 25.75H43.12" stroke="#6F2CFF" stroke-width="2.78" stroke-miterlimit="10" stroke-linecap="round"/>
<path d="M39.11 32.3101H43.12" stroke="#6F2CFF" stroke-width="2.78" stroke-miterlimit="10" stroke-linecap="round"/>
<path d="M39.11 19.1899H43.12" stroke="#6F2CFF" stroke-width="2.78" stroke-miterlimit="10" stroke-linecap="round"/>
<path d="M6.88 25.75H10.89" stroke="#6F2CFF" stroke-width="2.78" stroke-miterlimit="10" stroke-linecap="round"/>
<path d="M6.88 32.3101H10.89" stroke="#6F2CFF" stroke-width="2.78" stroke-miterlimit="10" stroke-linecap="round"/>
<path d="M6.88 19.1899H10.89" stroke="#6F2CFF" stroke-width="2.78" stroke-miterlimit="10" stroke-linecap="round"/>
<path d="M25 11.6399V7.62988" stroke="#6F2CFF" stroke-width="2.78" stroke-miterlimit="10" stroke-linecap="round"/>
<path d="M31.16 11.6399V7.62988" stroke="#6F2CFF" stroke-width="2.78" stroke-miterlimit="10" stroke-linecap="round"/>
<path d="M18.84 11.6399V7.62988" stroke="#6F2CFF" stroke-width="2.78" stroke-miterlimit="10" stroke-linecap="round"/>
<path d="M25 43.8701V39.8601" stroke="#6F2CFF" stroke-width="2.78" stroke-miterlimit="10" stroke-linecap="round"/>
<path d="M31.16 43.8701V39.8601" stroke="#6F2CFF" stroke-width="2.78" stroke-miterlimit="10" stroke-linecap="round"/>
<path d="M18.84 43.8701V39.8601" stroke="#6F2CFF" stroke-width="2.78" stroke-miterlimit="10" stroke-linecap="round"/>
<path d="M26.88 23.8601H23.11V27.6301H26.88V23.8601Z" fill="#D15187"/>
<path d="M33.04 23.8601H29.27V27.6301H33.04V23.8601Z" fill="#D15187"/>
<path d="M20.72 23.8601H16.95V27.6301H20.72V23.8601Z" fill="#D15187"/>
<path d="M26.88 17.3101H23.11V21.0801H26.88V17.3101Z" fill="#D15187"/>
<path d="M33.04 17.3101H29.27V21.0801H33.04V17.3101Z" fill="#D15187"/>
<path d="M20.72 17.3101H16.95V21.0801H20.72V17.3101Z" fill="#D15187"/>
<path d="M26.88 30.4199H23.11V34.1899H26.88V30.4199Z" fill="#D15187"/>
<path d="M33.04 30.4199H29.27V34.1899H33.04V30.4199Z" fill="#D15187"/>
<path d="M20.72 30.4199H16.95V34.1899H20.72V30.4199Z" fill="#D15187"/>
</svg>
