<svg width="50" height="51" viewBox="0 0 50 51" fill="none" xmlns="http://www.w3.org/2000/svg">
<path d="M25 16.7501C28.2972 16.7501 30.97 14.0772 30.97 10.7801C30.97 7.48292 28.2972 4.81006 25 4.81006C21.7029 4.81006 19.03 7.48292 19.03 10.7801C19.03 14.0772 21.7029 16.7501 25 16.7501Z" fill="#A445BB"/>
<path d="M12.0399 24.24C15.3371 24.24 18.0099 21.5672 18.0099 18.27C18.0099 14.9729 15.3371 12.3 12.0399 12.3C8.74281 12.3 6.06995 14.9729 6.06995 18.27C6.06995 21.5672 8.74281 24.24 12.0399 24.24Z" fill="#6F2CFF"/>
<path d="M12.0399 39.2C15.3371 39.2 18.0099 36.5271 18.0099 33.23C18.0099 29.9329 15.3371 27.26 12.0399 27.26C8.74281 27.26 6.06995 29.9329 6.06995 33.23C6.06995 36.5271 8.74281 39.2 12.0399 39.2Z" fill="#A445BB"/>
<path d="M25 46.69C28.2972 46.69 30.97 44.0171 30.97 40.72C30.97 37.4229 28.2972 34.75 25 34.75C21.7029 34.75 19.03 37.4229 19.03 40.72C19.03 44.0171 21.7029 46.69 25 46.69Z" fill="#6F2CFF"/>
<path d="M37.96 39.2C41.2571 39.2 43.93 36.5271 43.93 33.23C43.93 29.9329 41.2571 27.26 37.96 27.26C34.6628 27.26 31.99 29.9329 31.99 33.23C31.99 36.5271 34.6628 39.2 37.96 39.2Z" fill="#A445BB"/>
<path d="M37.96 24.24C41.2571 24.24 43.93 21.5672 43.93 18.27C43.93 14.9729 41.2571 12.3 37.96 12.3C34.6628 12.3 31.99 14.9729 31.99 18.27C31.99 21.5672 34.6628 24.24 37.96 24.24Z" fill="#6F2CFF"/>
<path d="M25 29.66C27.1594 29.66 28.91 27.9094 28.91 25.75C28.91 23.5905 27.1594 21.84 25 21.84C22.8405 21.84 21.09 23.5905 21.09 25.75C21.09 27.9094 22.8405 29.66 25 29.66Z" fill="#D15187"/>
</svg>
